<?xml version="1.0" encoding="utf-8" standalone="no"?>
<!DOCTYPE svg PUBLIC "-//W3C//DTD SVG 1.1//EN"
  "http://www.w3.org/Graphics/SVG/1.1/DTD/svg11.dtd">
<!-- Created with matplotlib (https://matplotlib.org/) -->
<svg height="288pt" version="1.1" viewBox="0 0 432 288" width="432pt" xmlns="http://www.w3.org/2000/svg" xmlns:xlink="http://www.w3.org/1999/xlink">
 <defs>
  <style type="text/css">
*{stroke-linecap:butt;stroke-linejoin:round;}
  </style>
 </defs>
 <g id="figure_1">
  <g id="patch_1">
   <path d="M 0 288 
L 432 288 
L 432 0 
L 0 0 
z
" style="fill:#ffffff;"/>
  </g>
  <g id="axes_1">
   <g id="patch_2">
    <path d="M 54 252 
L 388.8 252 
L 388.8 34.56 
L 54 34.56 
z
" style="fill:#ffffff;"/>
   </g>
   <g id="PathCollection_1">
    <defs>
     <path d="M 0 2.236068 
C 0.593012 2.236068 1.161816 2.000462 1.581139 1.581139 
C 2.000462 1.161816 2.236068 0.593012 2.236068 0 
C 2.236068 -0.593012 2.000462 -1.161816 1.581139 -1.581139 
C 1.161816 -2.000462 0.593012 -2.236068 0 -2.236068 
C -0.593012 -2.236068 -1.161816 -2.000462 -1.581139 -1.581139 
C -2.000462 -1.161816 -2.236068 -0.593012 -2.236068 0 
C -2.236068 0.593012 -2.000462 1.161816 -1.581139 1.581139 
C -1.161816 2.000462 -0.593012 2.236068 0 2.236068 
z
" id="m3144754bd0" style="stroke:#1f77b4;"/>
    </defs>
    <g clip-path="url(#p2d69f4ac9c)">
     <use style="fill:#1f77b4;stroke:#1f77b4;" x="69.218182" xlink:href="#m3144754bd0" y="207.638562"/>
     <use style="fill:#1f77b4;stroke:#1f77b4;" x="71.040719" xlink:href="#m3144754bd0" y="211.72482"/>
     <use style="fill:#1f77b4;stroke:#1f77b4;" x="72.863255" xlink:href="#m3144754bd0" y="193.847442"/>
     <use style="fill:#1f77b4;stroke:#1f77b4;" x="74.685792" xlink:href="#m3144754bd0" y="188.739619"/>
     <use style="fill:#1f77b4;stroke:#1f77b4;" x="76.508329" xlink:href="#m3144754bd0" y="220.152727"/>
     <use style="fill:#1f77b4;stroke:#1f77b4;" x="78.330866" xlink:href="#m3144754bd0" y="228.580634"/>
     <use style="fill:#1f77b4;stroke:#1f77b4;" x="80.153402" xlink:href="#m3144754bd0" y="230.368372"/>
     <use style="fill:#1f77b4;stroke:#1f77b4;" x="81.975939" xlink:href="#m3144754bd0" y="232.922283"/>
     <use style="fill:#1f77b4;stroke:#1f77b4;" x="83.798476" xlink:href="#m3144754bd0" y="232.411501"/>
     <use style="fill:#1f77b4;stroke:#1f77b4;" x="85.621013" xlink:href="#m3144754bd0" y="205.084651"/>
     <use style="fill:#1f77b4;stroke:#1f77b4;" x="87.443549" xlink:href="#m3144754bd0" y="207.638562"/>
     <use style="fill:#1f77b4;stroke:#1f77b4;" x="89.266086" xlink:href="#m3144754bd0" y="229.091416"/>
     <use style="fill:#1f77b4;stroke:#1f77b4;" x="91.088623" xlink:href="#m3144754bd0" y="235.476195"/>
     <use style="fill:#1f77b4;stroke:#1f77b4;" x="92.911159" xlink:href="#m3144754bd0" y="240.584017"/>
     <use style="fill:#1f77b4;stroke:#1f77b4;" x="94.733696" xlink:href="#m3144754bd0" y="232.15611"/>
     <use style="fill:#1f77b4;stroke:#1f77b4;" x="96.556233" xlink:href="#m3144754bd0" y="233.433066"/>
     <use style="fill:#1f77b4;stroke:#1f77b4;" x="98.37877" xlink:href="#m3144754bd0" y="210.958647"/>
     <use style="fill:#1f77b4;stroke:#1f77b4;" x="100.201306" xlink:href="#m3144754bd0" y="194.613615"/>
     <use style="fill:#1f77b4;stroke:#1f77b4;" x="102.023843" xlink:href="#m3144754bd0" y="223.728203"/>
     <use style="fill:#1f77b4;stroke:#1f77b4;" x="103.84638" xlink:href="#m3144754bd0" y="236.497759"/>
     <use style="fill:#1f77b4;stroke:#1f77b4;" x="105.668917" xlink:href="#m3144754bd0" y="241.094799"/>
     <use style="fill:#1f77b4;stroke:#1f77b4;" x="107.491453" xlink:href="#m3144754bd0" y="234.710021"/>
     <use style="fill:#1f77b4;stroke:#1f77b4;" x="109.31399" xlink:href="#m3144754bd0" y="233.433066"/>
     <use style="fill:#1f77b4;stroke:#1f77b4;" x="111.136527" xlink:href="#m3144754bd0" y="218.109598"/>
     <use style="fill:#1f77b4;stroke:#1f77b4;" x="112.959064" xlink:href="#m3144754bd0" y="206.106216"/>
     <use style="fill:#1f77b4;stroke:#1f77b4;" x="114.7816" xlink:href="#m3144754bd0" y="227.303679"/>
     <use style="fill:#1f77b4;stroke:#1f77b4;" x="116.604137" xlink:href="#m3144754bd0" y="222.195856"/>
     <use style="fill:#1f77b4;stroke:#1f77b4;" x="118.426674" xlink:href="#m3144754bd0" y="233.688457"/>
     <use style="fill:#1f77b4;stroke:#1f77b4;" x="120.249211" xlink:href="#m3144754bd0" y="239.307061"/>
     <use style="fill:#1f77b4;stroke:#1f77b4;" x="122.071747" xlink:href="#m3144754bd0" y="223.217421"/>
     <use style="fill:#1f77b4;stroke:#1f77b4;" x="123.894284" xlink:href="#m3144754bd0" y="199.210655"/>
     <use style="fill:#1f77b4;stroke:#1f77b4;" x="125.716821" xlink:href="#m3144754bd0" y="202.019958"/>
     <use style="fill:#1f77b4;stroke:#1f77b4;" x="127.539358" xlink:href="#m3144754bd0" y="234.45463"/>
     <use style="fill:#1f77b4;stroke:#1f77b4;" x="129.361894" xlink:href="#m3144754bd0" y="238.285497"/>
     <use style="fill:#1f77b4;stroke:#1f77b4;" x="131.184431" xlink:href="#m3144754bd0" y="235.731586"/>
     <use style="fill:#1f77b4;stroke:#1f77b4;" x="133.006968" xlink:href="#m3144754bd0" y="237.519323"/>
     <use style="fill:#1f77b4;stroke:#1f77b4;" x="134.829505" xlink:href="#m3144754bd0" y="230.879154"/>
     <use style="fill:#1f77b4;stroke:#1f77b4;" x="136.652041" xlink:href="#m3144754bd0" y="213.001776"/>
     <use style="fill:#1f77b4;stroke:#1f77b4;" x="138.474578" xlink:href="#m3144754bd0" y="202.786131"/>
     <use style="fill:#1f77b4;stroke:#1f77b4;" x="140.297115" xlink:href="#m3144754bd0" y="230.112981"/>
     <use style="fill:#1f77b4;stroke:#1f77b4;" x="142.119652" xlink:href="#m3144754bd0" y="234.710021"/>
     <use style="fill:#1f77b4;stroke:#1f77b4;" x="143.942188" xlink:href="#m3144754bd0" y="238.540888"/>
     <use style="fill:#1f77b4;stroke:#1f77b4;" x="145.764725" xlink:href="#m3144754bd0" y="232.666892"/>
     <use style="fill:#1f77b4;stroke:#1f77b4;" x="147.587262" xlink:href="#m3144754bd0" y="232.666892"/>
     <use style="fill:#1f77b4;stroke:#1f77b4;" x="149.409799" xlink:href="#m3144754bd0" y="196.401353"/>
     <use style="fill:#1f77b4;stroke:#1f77b4;" x="151.232335" xlink:href="#m3144754bd0" y="185.419535"/>
     <use style="fill:#1f77b4;stroke:#1f77b4;" x="153.054872" xlink:href="#m3144754bd0" y="211.72482"/>
     <use style="fill:#1f77b4;stroke:#1f77b4;" x="154.877409" xlink:href="#m3144754bd0" y="224.494376"/>
     <use style="fill:#1f77b4;stroke:#1f77b4;" x="156.699946" xlink:href="#m3144754bd0" y="222.96203"/>
     <use style="fill:#1f77b4;stroke:#1f77b4;" x="158.522482" xlink:href="#m3144754bd0" y="221.174292"/>
     <use style="fill:#1f77b4;stroke:#1f77b4;" x="160.345019" xlink:href="#m3144754bd0" y="220.918901"/>
     <use style="fill:#1f77b4;stroke:#1f77b4;" x="162.167556" xlink:href="#m3144754bd0" y="203.807696"/>
     <use style="fill:#1f77b4;stroke:#1f77b4;" x="163.990093" xlink:href="#m3144754bd0" y="196.912135"/>
     <use style="fill:#1f77b4;stroke:#1f77b4;" x="165.812629" xlink:href="#m3144754bd0" y="222.451247"/>
     <use style="fill:#1f77b4;stroke:#1f77b4;" x="167.635166" xlink:href="#m3144754bd0" y="230.623763"/>
     <use style="fill:#1f77b4;stroke:#1f77b4;" x="169.457703" xlink:href="#m3144754bd0" y="234.45463"/>
     <use style="fill:#1f77b4;stroke:#1f77b4;" x="171.28024" xlink:href="#m3144754bd0" y="242.116364"/>
     <use style="fill:#1f77b4;stroke:#1f77b4;" x="173.102776" xlink:href="#m3144754bd0" y="215.044905"/>
     <use style="fill:#1f77b4;stroke:#1f77b4;" x="174.925313" xlink:href="#m3144754bd0" y="206.361607"/>
     <use style="fill:#1f77b4;stroke:#1f77b4;" x="176.74785" xlink:href="#m3144754bd0" y="186.951882"/>
     <use style="fill:#1f77b4;stroke:#1f77b4;" x="178.570386" xlink:href="#m3144754bd0" y="216.832643"/>
     <use style="fill:#1f77b4;stroke:#1f77b4;" x="180.392923" xlink:href="#m3144754bd0" y="220.152727"/>
     <use style="fill:#1f77b4;stroke:#1f77b4;" x="182.21546" xlink:href="#m3144754bd0" y="218.620381"/>
     <use style="fill:#1f77b4;stroke:#1f77b4;" x="184.037997" xlink:href="#m3144754bd0" y="219.641945"/>
     <use style="fill:#1f77b4;stroke:#1f77b4;" x="185.860533" xlink:href="#m3144754bd0" y="223.472812"/>
     <use style="fill:#1f77b4;stroke:#1f77b4;" x="187.68307" xlink:href="#m3144754bd0" y="183.887188"/>
     <use style="fill:#1f77b4;stroke:#1f77b4;" x="189.505607" xlink:href="#m3144754bd0" y="187.718055"/>
     <use style="fill:#1f77b4;stroke:#1f77b4;" x="191.328144" xlink:href="#m3144754bd0" y="202.275349"/>
     <use style="fill:#1f77b4;stroke:#1f77b4;" x="193.15068" xlink:href="#m3144754bd0" y="229.091416"/>
     <use style="fill:#1f77b4;stroke:#1f77b4;" x="194.973217" xlink:href="#m3144754bd0" y="220.152727"/>
     <use style="fill:#1f77b4;stroke:#1f77b4;" x="196.795754" xlink:href="#m3144754bd0" y="240.073235"/>
     <use style="fill:#1f77b4;stroke:#1f77b4;" x="198.618291" xlink:href="#m3144754bd0" y="229.091416"/>
     <use style="fill:#1f77b4;stroke:#1f77b4;" x="200.440827" xlink:href="#m3144754bd0" y="165.243636"/>
     <use style="fill:#1f77b4;stroke:#1f77b4;" x="202.263364" xlink:href="#m3144754bd0" y="159.880423"/>
     <use style="fill:#1f77b4;stroke:#1f77b4;" x="204.085901" xlink:href="#m3144754bd0" y="216.577252"/>
     <use style="fill:#1f77b4;stroke:#1f77b4;" x="205.908438" xlink:href="#m3144754bd0" y="216.066469"/>
     <use style="fill:#1f77b4;stroke:#1f77b4;" x="207.730974" xlink:href="#m3144754bd0" y="214.02334"/>
     <use style="fill:#1f77b4;stroke:#1f77b4;" x="209.553511" xlink:href="#m3144754bd0" y="213.767949"/>
     <use style="fill:#1f77b4;stroke:#1f77b4;" x="211.376048" xlink:href="#m3144754bd0" y="207.12778"/>
     <use style="fill:#1f77b4;stroke:#1f77b4;" x="213.198585" xlink:href="#m3144754bd0" y="160.901987"/>
     <use style="fill:#1f77b4;stroke:#1f77b4;" x="215.021121" xlink:href="#m3144754bd0" y="168.052939"/>
     <use style="fill:#1f77b4;stroke:#1f77b4;" x="216.843658" xlink:href="#m3144754bd0" y="221.174292"/>
     <use style="fill:#1f77b4;stroke:#1f77b4;" x="218.666195" xlink:href="#m3144754bd0" y="226.537505"/>
     <use style="fill:#1f77b4;stroke:#1f77b4;" x="220.488732" xlink:href="#m3144754bd0" y="216.32186"/>
     <use style="fill:#1f77b4;stroke:#1f77b4;" x="222.311268" xlink:href="#m3144754bd0" y="216.066469"/>
     <use style="fill:#1f77b4;stroke:#1f77b4;" x="224.133805" xlink:href="#m3144754bd0" y="214.789514"/>
     <use style="fill:#1f77b4;stroke:#1f77b4;" x="225.956342" xlink:href="#m3144754bd0" y="180.822495"/>
     <use style="fill:#1f77b4;stroke:#1f77b4;" x="227.778879" xlink:href="#m3144754bd0" y="179.80093"/>
     <use style="fill:#1f77b4;stroke:#1f77b4;" x="229.601415" xlink:href="#m3144754bd0" y="216.066469"/>
     <use style="fill:#1f77b4;stroke:#1f77b4;" x="231.423952" xlink:href="#m3144754bd0" y="215.300296"/>
     <use style="fill:#1f77b4;stroke:#1f77b4;" x="233.246489" xlink:href="#m3144754bd0" y="214.278732"/>
     <use style="fill:#1f77b4;stroke:#1f77b4;" x="235.069026" xlink:href="#m3144754bd0" y="211.72482"/>
     <use style="fill:#1f77b4;stroke:#1f77b4;" x="236.891562" xlink:href="#m3144754bd0" y="209.170909"/>
     <use style="fill:#1f77b4;stroke:#1f77b4;" x="238.714099" xlink:href="#m3144754bd0" y="173.926934"/>
     <use style="fill:#1f77b4;stroke:#1f77b4;" x="240.536636" xlink:href="#m3144754bd0" y="175.459281"/>
     <use style="fill:#1f77b4;stroke:#1f77b4;" x="242.359173" xlink:href="#m3144754bd0" y="196.401353"/>
     <use style="fill:#1f77b4;stroke:#1f77b4;" x="244.181709" xlink:href="#m3144754bd0" y="208.660127"/>
     <use style="fill:#1f77b4;stroke:#1f77b4;" x="246.004246" xlink:href="#m3144754bd0" y="198.955264"/>
     <use style="fill:#1f77b4;stroke:#1f77b4;" x="247.826783" xlink:href="#m3144754bd0" y="207.383171"/>
     <use style="fill:#1f77b4;stroke:#1f77b4;" x="249.64932" xlink:href="#m3144754bd0" y="187.462664"/>
     <use style="fill:#1f77b4;stroke:#1f77b4;" x="251.471856" xlink:href="#m3144754bd0" y="156.304947"/>
     <use style="fill:#1f77b4;stroke:#1f77b4;" x="253.294393" xlink:href="#m3144754bd0" y="178.779366"/>
     <use style="fill:#1f77b4;stroke:#1f77b4;" x="255.11693" xlink:href="#m3144754bd0" y="205.850825"/>
     <use style="fill:#1f77b4;stroke:#1f77b4;" x="256.939467" xlink:href="#m3144754bd0" y="215.811078"/>
     <use style="fill:#1f77b4;stroke:#1f77b4;" x="258.762003" xlink:href="#m3144754bd0" y="205.595433"/>
     <use style="fill:#1f77b4;stroke:#1f77b4;" x="260.58454" xlink:href="#m3144754bd0" y="197.678309"/>
     <use style="fill:#1f77b4;stroke:#1f77b4;" x="262.407077" xlink:href="#m3144754bd0" y="190.016575"/>
     <use style="fill:#1f77b4;stroke:#1f77b4;" x="264.229614" xlink:href="#m3144754bd0" y="156.304947"/>
     <use style="fill:#1f77b4;stroke:#1f77b4;" x="266.05215" xlink:href="#m3144754bd0" y="144.301564"/>
     <use style="fill:#1f77b4;stroke:#1f77b4;" x="267.874687" xlink:href="#m3144754bd0" y="192.825877"/>
     <use style="fill:#1f77b4;stroke:#1f77b4;" x="269.697224" xlink:href="#m3144754bd0" y="184.39797"/>
     <use style="fill:#1f77b4;stroke:#1f77b4;" x="271.51976" xlink:href="#m3144754bd0" y="185.674926"/>
     <use style="fill:#1f77b4;stroke:#1f77b4;" x="273.342297" xlink:href="#m3144754bd0" y="184.39797"/>
     <use style="fill:#1f77b4;stroke:#1f77b4;" x="275.164834" xlink:href="#m3144754bd0" y="169.329894"/>
     <use style="fill:#1f77b4;stroke:#1f77b4;" x="276.987371" xlink:href="#m3144754bd0" y="122.84871"/>
     <use style="fill:#1f77b4;stroke:#1f77b4;" x="278.809907" xlink:href="#m3144754bd0" y="131.021226"/>
     <use style="fill:#1f77b4;stroke:#1f77b4;" x="280.632444" xlink:href="#m3144754bd0" y="170.096068"/>
     <use style="fill:#1f77b4;stroke:#1f77b4;" x="282.454981" xlink:href="#m3144754bd0" y="181.333277"/>
     <use style="fill:#1f77b4;stroke:#1f77b4;" x="284.277518" xlink:href="#m3144754bd0" y="172.394588"/>
     <use style="fill:#1f77b4;stroke:#1f77b4;" x="286.100054" xlink:href="#m3144754bd0" y="171.628414"/>
     <use style="fill:#1f77b4;stroke:#1f77b4;" x="287.922591" xlink:href="#m3144754bd0" y="157.837294"/>
     <use style="fill:#1f77b4;stroke:#1f77b4;" x="289.745128" xlink:href="#m3144754bd0" y="109.568372"/>
     <use style="fill:#1f77b4;stroke:#1f77b4;" x="291.567665" xlink:href="#m3144754bd0" y="113.399239"/>
     <use style="fill:#1f77b4;stroke:#1f77b4;" x="293.390201" xlink:href="#m3144754bd0" y="163.966681"/>
     <use style="fill:#1f77b4;stroke:#1f77b4;" x="295.212738" xlink:href="#m3144754bd0" y="168.052939"/>
     <use style="fill:#1f77b4;stroke:#1f77b4;" x="297.035275" xlink:href="#m3144754bd0" y="171.373023"/>
     <use style="fill:#1f77b4;stroke:#1f77b4;" x="298.857812" xlink:href="#m3144754bd0" y="170.096068"/>
     <use style="fill:#1f77b4;stroke:#1f77b4;" x="300.680348" xlink:href="#m3144754bd0" y="170.862241"/>
     <use style="fill:#1f77b4;stroke:#1f77b4;" x="302.502885" xlink:href="#m3144754bd0" y="124.381057"/>
     <use style="fill:#1f77b4;stroke:#1f77b4;" x="304.325422" xlink:href="#m3144754bd0" y="120.805581"/>
     <use style="fill:#1f77b4;stroke:#1f77b4;" x="306.147959" xlink:href="#m3144754bd0" y="162.945116"/>
     <use style="fill:#1f77b4;stroke:#1f77b4;" x="307.970495" xlink:href="#m3144754bd0" y="166.265201"/>
     <use style="fill:#1f77b4;stroke:#1f77b4;" x="309.793032" xlink:href="#m3144754bd0" y="166.265201"/>
     <use style="fill:#1f77b4;stroke:#1f77b4;" x="311.615569" xlink:href="#m3144754bd0" y="154.261818"/>
     <use style="fill:#1f77b4;stroke:#1f77b4;" x="313.438106" xlink:href="#m3144754bd0" y="150.17556"/>
     <use style="fill:#1f77b4;stroke:#1f77b4;" x="315.260642" xlink:href="#m3144754bd0" y="105.226723"/>
     <use style="fill:#1f77b4;stroke:#1f77b4;" x="317.083179" xlink:href="#m3144754bd0" y="95.777252"/>
     <use style="fill:#1f77b4;stroke:#1f77b4;" x="318.905716" xlink:href="#m3144754bd0" y="138.427569"/>
     <use style="fill:#1f77b4;stroke:#1f77b4;" x="320.728253" xlink:href="#m3144754bd0" y="132.808964"/>
     <use style="fill:#1f77b4;stroke:#1f77b4;" x="322.550789" xlink:href="#m3144754bd0" y="134.08592"/>
     <use style="fill:#1f77b4;stroke:#1f77b4;" x="324.373326" xlink:href="#m3144754bd0" y="124.125666"/>
     <use style="fill:#1f77b4;stroke:#1f77b4;" x="326.195863" xlink:href="#m3144754bd0" y="111.866892"/>
     <use style="fill:#1f77b4;stroke:#1f77b4;" x="328.0184" xlink:href="#m3144754bd0" y="69.471966"/>
     <use style="fill:#1f77b4;stroke:#1f77b4;" x="329.840936" xlink:href="#m3144754bd0" y="44.443636"/>
     <use style="fill:#1f77b4;stroke:#1f77b4;" x="331.663473" xlink:href="#m3144754bd0" y="66.407273"/>
     <use style="fill:#1f77b4;stroke:#1f77b4;" x="333.48601" xlink:href="#m3144754bd0" y="113.910021"/>
     <use style="fill:#1f77b4;stroke:#1f77b4;" x="335.308547" xlink:href="#m3144754bd0" y="143.024609"/>
     <use style="fill:#1f77b4;stroke:#1f77b4;" x="337.131083" xlink:href="#m3144754bd0" y="154.006427"/>
     <use style="fill:#1f77b4;stroke:#1f77b4;" x="338.95362" xlink:href="#m3144754bd0" y="149.664778"/>
     <use style="fill:#1f77b4;stroke:#1f77b4;" x="340.776157" xlink:href="#m3144754bd0" y="111.35611"/>
     <use style="fill:#1f77b4;stroke:#1f77b4;" x="342.598694" xlink:href="#m3144754bd0" y="109.312981"/>
     <use style="fill:#1f77b4;stroke:#1f77b4;" x="344.42123" xlink:href="#m3144754bd0" y="161.923552"/>
     <use style="fill:#1f77b4;stroke:#1f77b4;" x="346.243767" xlink:href="#m3144754bd0" y="173.160761"/>
     <use style="fill:#1f77b4;stroke:#1f77b4;" x="348.066304" xlink:href="#m3144754bd0" y="168.052939"/>
     <use style="fill:#1f77b4;stroke:#1f77b4;" x="349.888841" xlink:href="#m3144754bd0" y="171.883805"/>
     <use style="fill:#1f77b4;stroke:#1f77b4;" x="351.711377" xlink:href="#m3144754bd0" y="150.430951"/>
     <use style="fill:#1f77b4;stroke:#1f77b4;" x="353.533914" xlink:href="#m3144754bd0" y="128.722706"/>
     <use style="fill:#1f77b4;stroke:#1f77b4;" x="355.356451" xlink:href="#m3144754bd0" y="92.201776"/>
     <use style="fill:#1f77b4;stroke:#1f77b4;" x="357.178987" xlink:href="#m3144754bd0" y="155.538774"/>
     <use style="fill:#1f77b4;stroke:#1f77b4;" x="359.001524" xlink:href="#m3144754bd0" y="161.41277"/>
     <use style="fill:#1f77b4;stroke:#1f77b4;" x="360.824061" xlink:href="#m3144754bd0" y="161.923552"/>
     <use style="fill:#1f77b4;stroke:#1f77b4;" x="362.646598" xlink:href="#m3144754bd0" y="153.495645"/>
     <use style="fill:#1f77b4;stroke:#1f77b4;" x="364.469134" xlink:href="#m3144754bd0" y="126.168795"/>
     <use style="fill:#1f77b4;stroke:#1f77b4;" x="366.291671" xlink:href="#m3144754bd0" y="98.841945"/>
     <use style="fill:#1f77b4;stroke:#1f77b4;" x="368.114208" xlink:href="#m3144754bd0" y="116.463932"/>
     <use style="fill:#1f77b4;stroke:#1f77b4;" x="369.936745" xlink:href="#m3144754bd0" y="178.013192"/>
     <use style="fill:#1f77b4;stroke:#1f77b4;" x="371.759281" xlink:href="#m3144754bd0" y="185.674926"/>
     <use style="fill:#1f77b4;stroke:#1f77b4;" x="373.581818" xlink:href="#m3144754bd0" y="198.189091"/>
    </g>
   </g>
   <g id="matplotlib.axis_1">
    <g id="xtick_1">
     <g id="line2d_1">
      <defs>
       <path d="M 0 0 
L 0 3.5 
" id="mb02aa7ebb7" style="stroke:#000000;stroke-width:0.8;"/>
      </defs>
      <g>
       <use style="stroke:#000000;stroke-width:0.8;" x="67.395645" xlink:href="#mb02aa7ebb7" y="252"/>
      </g>
     </g>
     <g id="text_1">
      <!-- 2020-01 -->
      <defs>
       <path d="M 19.1875 8.296875 
L 53.609375 8.296875 
L 53.609375 0 
L 7.328125 0 
L 7.328125 8.296875 
Q 12.9375 14.109375 22.625 23.890625 
Q 32.328125 33.6875 34.8125 36.53125 
Q 39.546875 41.84375 41.421875 45.53125 
Q 43.3125 49.21875 43.3125 52.78125 
Q 43.3125 58.59375 39.234375 62.25 
Q 35.15625 65.921875 28.609375 65.921875 
Q 23.96875 65.921875 18.8125 64.3125 
Q 13.671875 62.703125 7.8125 59.421875 
L 7.8125 69.390625 
Q 13.765625 71.78125 18.9375 73 
Q 24.125 74.21875 28.421875 74.21875 
Q 39.75 74.21875 46.484375 68.546875 
Q 53.21875 62.890625 53.21875 53.421875 
Q 53.21875 48.921875 51.53125 44.890625 
Q 49.859375 40.875 45.40625 35.40625 
Q 44.1875 33.984375 37.640625 27.21875 
Q 31.109375 20.453125 19.1875 8.296875 
z
" id="DejaVuSans-50"/>
       <path d="M 31.78125 66.40625 
Q 24.171875 66.40625 20.328125 58.90625 
Q 16.5 51.421875 16.5 36.375 
Q 16.5 21.390625 20.328125 13.890625 
Q 24.171875 6.390625 31.78125 6.390625 
Q 39.453125 6.390625 43.28125 13.890625 
Q 47.125 21.390625 47.125 36.375 
Q 47.125 51.421875 43.28125 58.90625 
Q 39.453125 66.40625 31.78125 66.40625 
z
M 31.78125 74.21875 
Q 44.046875 74.21875 50.515625 64.515625 
Q 56.984375 54.828125 56.984375 36.375 
Q 56.984375 17.96875 50.515625 8.265625 
Q 44.046875 -1.421875 31.78125 -1.421875 
Q 19.53125 -1.421875 13.0625 8.265625 
Q 6.59375 17.96875 6.59375 36.375 
Q 6.59375 54.828125 13.0625 64.515625 
Q 19.53125 74.21875 31.78125 74.21875 
z
" id="DejaVuSans-48"/>
       <path d="M 4.890625 31.390625 
L 31.203125 31.390625 
L 31.203125 23.390625 
L 4.890625 23.390625 
z
" id="DejaVuSans-45"/>
       <path d="M 12.40625 8.296875 
L 28.515625 8.296875 
L 28.515625 63.921875 
L 10.984375 60.40625 
L 10.984375 69.390625 
L 28.421875 72.90625 
L 38.28125 72.90625 
L 38.28125 8.296875 
L 54.390625 8.296875 
L 54.390625 0 
L 12.40625 0 
z
" id="DejaVuSans-49"/>
      </defs>
      <g transform="translate(46.504239 266.598437)scale(0.1 -0.1)">
       <use xlink:href="#DejaVuSans-50"/>
       <use x="63.623047" xlink:href="#DejaVuSans-48"/>
       <use x="127.246094" xlink:href="#DejaVuSans-50"/>
       <use x="190.869141" xlink:href="#DejaVuSans-48"/>
       <use x="254.492188" xlink:href="#DejaVuSans-45"/>
       <use x="290.576172" xlink:href="#DejaVuSans-48"/>
       <use x="354.199219" xlink:href="#DejaVuSans-49"/>
      </g>
     </g>
    </g>
    <g id="xtick_2">
     <g id="line2d_2">
      <g>
       <use style="stroke:#000000;stroke-width:0.8;" x="123.894284" xlink:href="#mb02aa7ebb7" y="252"/>
      </g>
     </g>
     <g id="text_2">
      <!-- 2020-02 -->
      <g transform="translate(103.002878 266.598437)scale(0.1 -0.1)">
       <use xlink:href="#DejaVuSans-50"/>
       <use x="63.623047" xlink:href="#DejaVuSans-48"/>
       <use x="127.246094" xlink:href="#DejaVuSans-50"/>
       <use x="190.869141" xlink:href="#DejaVuSans-48"/>
       <use x="254.492188" xlink:href="#DejaVuSans-45"/>
       <use x="290.576172" xlink:href="#DejaVuSans-48"/>
       <use x="354.199219" xlink:href="#DejaVuSans-50"/>
      </g>
     </g>
    </g>
    <g id="xtick_3">
     <g id="line2d_3">
      <g>
       <use style="stroke:#000000;stroke-width:0.8;" x="176.74785" xlink:href="#mb02aa7ebb7" y="252"/>
      </g>
     </g>
     <g id="text_3">
      <!-- 2020-03 -->
      <defs>
       <path d="M 40.578125 39.3125 
Q 47.65625 37.796875 51.625 33 
Q 55.609375 28.21875 55.609375 21.1875 
Q 55.609375 10.40625 48.1875 4.484375 
Q 40.765625 -1.421875 27.09375 -1.421875 
Q 22.515625 -1.421875 17.65625 -0.515625 
Q 12.796875 0.390625 7.625 2.203125 
L 7.625 11.71875 
Q 11.71875 9.328125 16.59375 8.109375 
Q 21.484375 6.890625 26.8125 6.890625 
Q 36.078125 6.890625 40.9375 10.546875 
Q 45.796875 14.203125 45.796875 21.1875 
Q 45.796875 27.640625 41.28125 31.265625 
Q 36.765625 34.90625 28.71875 34.90625 
L 20.21875 34.90625 
L 20.21875 43.015625 
L 29.109375 43.015625 
Q 36.375 43.015625 40.234375 45.921875 
Q 44.09375 48.828125 44.09375 54.296875 
Q 44.09375 59.90625 40.109375 62.90625 
Q 36.140625 65.921875 28.71875 65.921875 
Q 24.65625 65.921875 20.015625 65.03125 
Q 15.375 64.15625 9.8125 62.3125 
L 9.8125 71.09375 
Q 15.4375 72.65625 20.34375 73.4375 
Q 25.25 74.21875 29.59375 74.21875 
Q 40.828125 74.21875 47.359375 69.109375 
Q 53.90625 64.015625 53.90625 55.328125 
Q 53.90625 49.265625 50.4375 45.09375 
Q 46.96875 40.921875 40.578125 39.3125 
z
" id="DejaVuSans-51"/>
      </defs>
      <g transform="translate(155.856444 266.598437)scale(0.1 -0.1)">
       <use xlink:href="#DejaVuSans-50"/>
       <use x="63.623047" xlink:href="#DejaVuSans-48"/>
       <use x="127.246094" xlink:href="#DejaVuSans-50"/>
       <use x="190.869141" xlink:href="#DejaVuSans-48"/>
       <use x="254.492188" xlink:href="#DejaVuSans-45"/>
       <use x="290.576172" xlink:href="#DejaVuSans-48"/>
       <use x="354.199219" xlink:href="#DejaVuSans-51"/>
      </g>
     </g>
    </g>
    <g id="xtick_4">
     <g id="line2d_4">
      <g>
       <use style="stroke:#000000;stroke-width:0.8;" x="233.246489" xlink:href="#mb02aa7ebb7" y="252"/>
      </g>
     </g>
     <g id="text_4">
      <!-- 2020-04 -->
      <defs>
       <path d="M 37.796875 64.3125 
L 12.890625 25.390625 
L 37.796875 25.390625 
z
M 35.203125 72.90625 
L 47.609375 72.90625 
L 47.609375 25.390625 
L 58.015625 25.390625 
L 58.015625 17.1875 
L 47.609375 17.1875 
L 47.609375 0 
L 37.796875 0 
L 37.796875 17.1875 
L 4.890625 17.1875 
L 4.890625 26.703125 
z
" id="DejaVuSans-52"/>
      </defs>
      <g transform="translate(212.355083 266.598437)scale(0.1 -0.1)">
       <use xlink:href="#DejaVuSans-50"/>
       <use x="63.623047" xlink:href="#DejaVuSans-48"/>
       <use x="127.246094" xlink:href="#DejaVuSans-50"/>
       <use x="190.869141" xlink:href="#DejaVuSans-48"/>
       <use x="254.492188" xlink:href="#DejaVuSans-45"/>
       <use x="290.576172" xlink:href="#DejaVuSans-48"/>
       <use x="354.199219" xlink:href="#DejaVuSans-52"/>
      </g>
     </g>
    </g>
    <g id="xtick_5">
     <g id="line2d_5">
      <g>
       <use style="stroke:#000000;stroke-width:0.8;" x="287.922591" xlink:href="#mb02aa7ebb7" y="252"/>
      </g>
     </g>
     <g id="text_5">
      <!-- 2020-05 -->
      <defs>
       <path d="M 10.796875 72.90625 
L 49.515625 72.90625 
L 49.515625 64.59375 
L 19.828125 64.59375 
L 19.828125 46.734375 
Q 21.96875 47.46875 24.109375 47.828125 
Q 26.265625 48.1875 28.421875 48.1875 
Q 40.625 48.1875 47.75 41.5 
Q 54.890625 34.8125 54.890625 23.390625 
Q 54.890625 11.625 47.5625 5.09375 
Q 40.234375 -1.421875 26.90625 -1.421875 
Q 22.3125 -1.421875 17.546875 -0.640625 
Q 12.796875 0.140625 7.71875 1.703125 
L 7.71875 11.625 
Q 12.109375 9.234375 16.796875 8.0625 
Q 21.484375 6.890625 26.703125 6.890625 
Q 35.15625 6.890625 40.078125 11.328125 
Q 45.015625 15.765625 45.015625 23.390625 
Q 45.015625 31 40.078125 35.4375 
Q 35.15625 39.890625 26.703125 39.890625 
Q 22.75 39.890625 18.8125 39.015625 
Q 14.890625 38.140625 10.796875 36.28125 
z
" id="DejaVuSans-53"/>
      </defs>
      <g transform="translate(267.031185 266.598437)scale(0.1 -0.1)">
       <use xlink:href="#DejaVuSans-50"/>
       <use x="63.623047" xlink:href="#DejaVuSans-48"/>
       <use x="127.246094" xlink:href="#DejaVuSans-50"/>
       <use x="190.869141" xlink:href="#DejaVuSans-48"/>
       <use x="254.492188" xlink:href="#DejaVuSans-45"/>
       <use x="290.576172" xlink:href="#DejaVuSans-48"/>
       <use x="354.199219" xlink:href="#DejaVuSans-53"/>
      </g>
     </g>
    </g>
    <g id="xtick_6">
     <g id="line2d_6">
      <g>
       <use style="stroke:#000000;stroke-width:0.8;" x="344.42123" xlink:href="#mb02aa7ebb7" y="252"/>
      </g>
     </g>
     <g id="text_6">
      <!-- 2020-06 -->
      <defs>
       <path d="M 33.015625 40.375 
Q 26.375 40.375 22.484375 35.828125 
Q 18.609375 31.296875 18.609375 23.390625 
Q 18.609375 15.53125 22.484375 10.953125 
Q 26.375 6.390625 33.015625 6.390625 
Q 39.65625 6.390625 43.53125 10.953125 
Q 47.40625 15.53125 47.40625 23.390625 
Q 47.40625 31.296875 43.53125 35.828125 
Q 39.65625 40.375 33.015625 40.375 
z
M 52.59375 71.296875 
L 52.59375 62.3125 
Q 48.875 64.0625 45.09375 64.984375 
Q 41.3125 65.921875 37.59375 65.921875 
Q 27.828125 65.921875 22.671875 59.328125 
Q 17.53125 52.734375 16.796875 39.40625 
Q 19.671875 43.65625 24.015625 45.921875 
Q 28.375 48.1875 33.59375 48.1875 
Q 44.578125 48.1875 50.953125 41.515625 
Q 57.328125 34.859375 57.328125 23.390625 
Q 57.328125 12.15625 50.6875 5.359375 
Q 44.046875 -1.421875 33.015625 -1.421875 
Q 20.359375 -1.421875 13.671875 8.265625 
Q 6.984375 17.96875 6.984375 36.375 
Q 6.984375 53.65625 15.1875 63.9375 
Q 23.390625 74.21875 37.203125 74.21875 
Q 40.921875 74.21875 44.703125 73.484375 
Q 48.484375 72.75 52.59375 71.296875 
z
" id="DejaVuSans-54"/>
      </defs>
      <g transform="translate(323.529824 266.598437)scale(0.1 -0.1)">
       <use xlink:href="#DejaVuSans-50"/>
       <use x="63.623047" xlink:href="#DejaVuSans-48"/>
       <use x="127.246094" xlink:href="#DejaVuSans-50"/>
       <use x="190.869141" xlink:href="#DejaVuSans-48"/>
       <use x="254.492188" xlink:href="#DejaVuSans-45"/>
       <use x="290.576172" xlink:href="#DejaVuSans-48"/>
       <use x="354.199219" xlink:href="#DejaVuSans-54"/>
      </g>
     </g>
    </g>
    <g id="text_7">
     <!-- Date -->
     <defs>
      <path d="M 19.671875 64.796875 
L 19.671875 8.109375 
L 31.59375 8.109375 
Q 46.6875 8.109375 53.6875 14.9375 
Q 60.6875 21.78125 60.6875 36.53125 
Q 60.6875 51.171875 53.6875 57.984375 
Q 46.6875 64.796875 31.59375 64.796875 
z
M 9.8125 72.90625 
L 30.078125 72.90625 
Q 51.265625 72.90625 61.171875 64.09375 
Q 71.09375 55.28125 71.09375 36.53125 
Q 71.09375 17.671875 61.125 8.828125 
Q 51.171875 0 30.078125 0 
L 9.8125 0 
z
" id="DejaVuSans-68"/>
      <path d="M 34.28125 27.484375 
Q 23.390625 27.484375 19.1875 25 
Q 14.984375 22.515625 14.984375 16.5 
Q 14.984375 11.71875 18.140625 8.90625 
Q 21.296875 6.109375 26.703125 6.109375 
Q 34.1875 6.109375 38.703125 11.40625 
Q 43.21875 16.703125 43.21875 25.484375 
L 43.21875 27.484375 
z
M 52.203125 31.203125 
L 52.203125 0 
L 43.21875 0 
L 43.21875 8.296875 
Q 40.140625 3.328125 35.546875 0.953125 
Q 30.953125 -1.421875 24.3125 -1.421875 
Q 15.921875 -1.421875 10.953125 3.296875 
Q 6 8.015625 6 15.921875 
Q 6 25.140625 12.171875 29.828125 
Q 18.359375 34.515625 30.609375 34.515625 
L 43.21875 34.515625 
L 43.21875 35.40625 
Q 43.21875 41.609375 39.140625 45 
Q 35.0625 48.390625 27.6875 48.390625 
Q 23 48.390625 18.546875 47.265625 
Q 14.109375 46.140625 10.015625 43.890625 
L 10.015625 52.203125 
Q 14.9375 54.109375 19.578125 55.046875 
Q 24.21875 56 28.609375 56 
Q 40.484375 56 46.34375 49.84375 
Q 52.203125 43.703125 52.203125 31.203125 
z
" id="DejaVuSans-97"/>
      <path d="M 18.3125 70.21875 
L 18.3125 54.6875 
L 36.8125 54.6875 
L 36.8125 47.703125 
L 18.3125 47.703125 
L 18.3125 18.015625 
Q 18.3125 11.328125 20.140625 9.421875 
Q 21.96875 7.515625 27.59375 7.515625 
L 36.8125 7.515625 
L 36.8125 0 
L 27.59375 0 
Q 17.1875 0 13.234375 3.875 
Q 9.28125 7.765625 9.28125 18.015625 
L 9.28125 47.703125 
L 2.6875 47.703125 
L 2.6875 54.6875 
L 9.28125 54.6875 
L 9.28125 70.21875 
z
" id="DejaVuSans-116"/>
      <path d="M 56.203125 29.59375 
L 56.203125 25.203125 
L 14.890625 25.203125 
Q 15.484375 15.921875 20.484375 11.0625 
Q 25.484375 6.203125 34.421875 6.203125 
Q 39.59375 6.203125 44.453125 7.46875 
Q 49.3125 8.734375 54.109375 11.28125 
L 54.109375 2.78125 
Q 49.265625 0.734375 44.1875 -0.34375 
Q 39.109375 -1.421875 33.890625 -1.421875 
Q 20.796875 -1.421875 13.15625 6.1875 
Q 5.515625 13.8125 5.515625 26.8125 
Q 5.515625 40.234375 12.765625 48.109375 
Q 20.015625 56 32.328125 56 
Q 43.359375 56 49.78125 48.890625 
Q 56.203125 41.796875 56.203125 29.59375 
z
M 47.21875 32.234375 
Q 47.125 39.59375 43.09375 43.984375 
Q 39.0625 48.390625 32.421875 48.390625 
Q 24.90625 48.390625 20.390625 44.140625 
Q 15.875 39.890625 15.1875 32.171875 
z
" id="DejaVuSans-101"/>
     </defs>
     <g transform="translate(209.449219 280.276563)scale(0.1 -0.1)">
      <use xlink:href="#DejaVuSans-68"/>
      <use x="77.001953" xlink:href="#DejaVuSans-97"/>
      <use x="138.28125" xlink:href="#DejaVuSans-116"/>
      <use x="177.490234" xlink:href="#DejaVuSans-101"/>
     </g>
    </g>
   </g>
   <g id="matplotlib.axis_2">
    <g id="ytick_1">
     <g id="line2d_7">
      <defs>
       <path d="M 0 0 
L -3.5 0 
" id="m29d50d9607" style="stroke:#000000;stroke-width:0.8;"/>
      </defs>
      <g>
       <use style="stroke:#000000;stroke-width:0.8;" x="54" xlink:href="#m29d50d9607" y="243.393319"/>
      </g>
     </g>
     <g id="text_8">
      <!-- 200 -->
      <g transform="translate(27.9125 247.192538)scale(0.1 -0.1)">
       <use xlink:href="#DejaVuSans-50"/>
       <use x="63.623047" xlink:href="#DejaVuSans-48"/>
       <use x="127.246094" xlink:href="#DejaVuSans-48"/>
      </g>
     </g>
    </g>
    <g id="ytick_2">
     <g id="line2d_8">
      <g>
       <use style="stroke:#000000;stroke-width:0.8;" x="54" xlink:href="#m29d50d9607" y="217.854207"/>
      </g>
     </g>
     <g id="text_9">
      <!-- 300 -->
      <g transform="translate(27.9125 221.653426)scale(0.1 -0.1)">
       <use xlink:href="#DejaVuSans-51"/>
       <use x="63.623047" xlink:href="#DejaVuSans-48"/>
       <use x="127.246094" xlink:href="#DejaVuSans-48"/>
      </g>
     </g>
    </g>
    <g id="ytick_3">
     <g id="line2d_9">
      <g>
       <use style="stroke:#000000;stroke-width:0.8;" x="54" xlink:href="#m29d50d9607" y="192.315095"/>
      </g>
     </g>
     <g id="text_10">
      <!-- 400 -->
      <g transform="translate(27.9125 196.114314)scale(0.1 -0.1)">
       <use xlink:href="#DejaVuSans-52"/>
       <use x="63.623047" xlink:href="#DejaVuSans-48"/>
       <use x="127.246094" xlink:href="#DejaVuSans-48"/>
      </g>
     </g>
    </g>
    <g id="ytick_4">
     <g id="line2d_10">
      <g>
       <use style="stroke:#000000;stroke-width:0.8;" x="54" xlink:href="#m29d50d9607" y="166.775983"/>
      </g>
     </g>
     <g id="text_11">
      <!-- 500 -->
      <g transform="translate(27.9125 170.575202)scale(0.1 -0.1)">
       <use xlink:href="#DejaVuSans-53"/>
       <use x="63.623047" xlink:href="#DejaVuSans-48"/>
       <use x="127.246094" xlink:href="#DejaVuSans-48"/>
      </g>
     </g>
    </g>
    <g id="ytick_5">
     <g id="line2d_11">
      <g>
       <use style="stroke:#000000;stroke-width:0.8;" x="54" xlink:href="#m29d50d9607" y="141.236871"/>
      </g>
     </g>
     <g id="text_12">
      <!-- 600 -->
      <g transform="translate(27.9125 145.03609)scale(0.1 -0.1)">
       <use xlink:href="#DejaVuSans-54"/>
       <use x="63.623047" xlink:href="#DejaVuSans-48"/>
       <use x="127.246094" xlink:href="#DejaVuSans-48"/>
      </g>
     </g>
    </g>
    <g id="ytick_6">
     <g id="line2d_12">
      <g>
       <use style="stroke:#000000;stroke-width:0.8;" x="54" xlink:href="#m29d50d9607" y="115.697759"/>
      </g>
     </g>
     <g id="text_13">
      <!-- 700 -->
      <defs>
       <path d="M 8.203125 72.90625 
L 55.078125 72.90625 
L 55.078125 68.703125 
L 28.609375 0 
L 18.3125 0 
L 43.21875 64.59375 
L 8.203125 64.59375 
z
" id="DejaVuSans-55"/>
      </defs>
      <g transform="translate(27.9125 119.496978)scale(0.1 -0.1)">
       <use xlink:href="#DejaVuSans-55"/>
       <use x="63.623047" xlink:href="#DejaVuSans-48"/>
       <use x="127.246094" xlink:href="#DejaVuSans-48"/>
      </g>
     </g>
    </g>
    <g id="ytick_7">
     <g id="line2d_13">
      <g>
       <use style="stroke:#000000;stroke-width:0.8;" x="54" xlink:href="#m29d50d9607" y="90.158647"/>
      </g>
     </g>
     <g id="text_14">
      <!-- 800 -->
      <defs>
       <path d="M 31.78125 34.625 
Q 24.75 34.625 20.71875 30.859375 
Q 16.703125 27.09375 16.703125 20.515625 
Q 16.703125 13.921875 20.71875 10.15625 
Q 24.75 6.390625 31.78125 6.390625 
Q 38.8125 6.390625 42.859375 10.171875 
Q 46.921875 13.96875 46.921875 20.515625 
Q 46.921875 27.09375 42.890625 30.859375 
Q 38.875 34.625 31.78125 34.625 
z
M 21.921875 38.8125 
Q 15.578125 40.375 12.03125 44.71875 
Q 8.5 49.078125 8.5 55.328125 
Q 8.5 64.0625 14.71875 69.140625 
Q 20.953125 74.21875 31.78125 74.21875 
Q 42.671875 74.21875 48.875 69.140625 
Q 55.078125 64.0625 55.078125 55.328125 
Q 55.078125 49.078125 51.53125 44.71875 
Q 48 40.375 41.703125 38.8125 
Q 48.828125 37.15625 52.796875 32.3125 
Q 56.78125 27.484375 56.78125 20.515625 
Q 56.78125 9.90625 50.3125 4.234375 
Q 43.84375 -1.421875 31.78125 -1.421875 
Q 19.734375 -1.421875 13.25 4.234375 
Q 6.78125 9.90625 6.78125 20.515625 
Q 6.78125 27.484375 10.78125 32.3125 
Q 14.796875 37.15625 21.921875 38.8125 
z
M 18.3125 54.390625 
Q 18.3125 48.734375 21.84375 45.5625 
Q 25.390625 42.390625 31.78125 42.390625 
Q 38.140625 42.390625 41.71875 45.5625 
Q 45.3125 48.734375 45.3125 54.390625 
Q 45.3125 60.0625 41.71875 63.234375 
Q 38.140625 66.40625 31.78125 66.40625 
Q 25.390625 66.40625 21.84375 63.234375 
Q 18.3125 60.0625 18.3125 54.390625 
z
" id="DejaVuSans-56"/>
      </defs>
      <g transform="translate(27.9125 93.957866)scale(0.1 -0.1)">
       <use xlink:href="#DejaVuSans-56"/>
       <use x="63.623047" xlink:href="#DejaVuSans-48"/>
       <use x="127.246094" xlink:href="#DejaVuSans-48"/>
      </g>
     </g>
    </g>
    <g id="ytick_8">
     <g id="line2d_14">
      <g>
       <use style="stroke:#000000;stroke-width:0.8;" x="54" xlink:href="#m29d50d9607" y="64.619535"/>
      </g>
     </g>
     <g id="text_15">
      <!-- 900 -->
      <defs>
       <path d="M 10.984375 1.515625 
L 10.984375 10.5 
Q 14.703125 8.734375 18.5 7.8125 
Q 22.3125 6.890625 25.984375 6.890625 
Q 35.75 6.890625 40.890625 13.453125 
Q 46.046875 20.015625 46.78125 33.40625 
Q 43.953125 29.203125 39.59375 26.953125 
Q 35.25 24.703125 29.984375 24.703125 
Q 19.046875 24.703125 12.671875 31.3125 
Q 6.296875 37.9375 6.296875 49.421875 
Q 6.296875 60.640625 12.9375 67.421875 
Q 19.578125 74.21875 30.609375 74.21875 
Q 43.265625 74.21875 49.921875 64.515625 
Q 56.59375 54.828125 56.59375 36.375 
Q 56.59375 19.140625 48.40625 8.859375 
Q 40.234375 -1.421875 26.421875 -1.421875 
Q 22.703125 -1.421875 18.890625 -0.6875 
Q 15.09375 0.046875 10.984375 1.515625 
z
M 30.609375 32.421875 
Q 37.25 32.421875 41.125 36.953125 
Q 45.015625 41.5 45.015625 49.421875 
Q 45.015625 57.28125 41.125 61.84375 
Q 37.25 66.40625 30.609375 66.40625 
Q 23.96875 66.40625 20.09375 61.84375 
Q 16.21875 57.28125 16.21875 49.421875 
Q 16.21875 41.5 20.09375 36.953125 
Q 23.96875 32.421875 30.609375 32.421875 
z
" id="DejaVuSans-57"/>
      </defs>
      <g transform="translate(27.9125 68.418754)scale(0.1 -0.1)">
       <use xlink:href="#DejaVuSans-57"/>
       <use x="63.623047" xlink:href="#DejaVuSans-48"/>
       <use x="127.246094" xlink:href="#DejaVuSans-48"/>
      </g>
     </g>
    </g>
    <g id="ytick_9">
     <g id="line2d_15">
      <g>
       <use style="stroke:#000000;stroke-width:0.8;" x="54" xlink:href="#m29d50d9607" y="39.080423"/>
      </g>
     </g>
     <g id="text_16">
      <!-- 1000 -->
      <g transform="translate(21.55 42.879642)scale(0.1 -0.1)">
       <use xlink:href="#DejaVuSans-49"/>
       <use x="63.623047" xlink:href="#DejaVuSans-48"/>
       <use x="127.246094" xlink:href="#DejaVuSans-48"/>
       <use x="190.869141" xlink:href="#DejaVuSans-48"/>
      </g>
     </g>
    </g>
    <g id="text_17">
     <!-- New Users -->
     <defs>
      <path d="M 9.8125 72.90625 
L 23.09375 72.90625 
L 55.421875 11.921875 
L 55.421875 72.90625 
L 64.984375 72.90625 
L 64.984375 0 
L 51.703125 0 
L 19.390625 60.984375 
L 19.390625 0 
L 9.8125 0 
z
" id="DejaVuSans-78"/>
      <path d="M 4.203125 54.6875 
L 13.1875 54.6875 
L 24.421875 12.015625 
L 35.59375 54.6875 
L 46.1875 54.6875 
L 57.421875 12.015625 
L 68.609375 54.6875 
L 77.59375 54.6875 
L 63.28125 0 
L 52.6875 0 
L 40.921875 44.828125 
L 29.109375 0 
L 18.5 0 
z
" id="DejaVuSans-119"/>
      <path id="DejaVuSans-32"/>
      <path d="M 8.6875 72.90625 
L 18.609375 72.90625 
L 18.609375 28.609375 
Q 18.609375 16.890625 22.84375 11.734375 
Q 27.09375 6.59375 36.625 6.59375 
Q 46.09375 6.59375 50.34375 11.734375 
Q 54.59375 16.890625 54.59375 28.609375 
L 54.59375 72.90625 
L 64.5 72.90625 
L 64.5 27.390625 
Q 64.5 13.140625 57.4375 5.859375 
Q 50.390625 -1.421875 36.625 -1.421875 
Q 22.796875 -1.421875 15.734375 5.859375 
Q 8.6875 13.140625 8.6875 27.390625 
z
" id="DejaVuSans-85"/>
      <path d="M 44.28125 53.078125 
L 44.28125 44.578125 
Q 40.484375 46.53125 36.375 47.5 
Q 32.28125 48.484375 27.875 48.484375 
Q 21.1875 48.484375 17.84375 46.4375 
Q 14.5 44.390625 14.5 40.28125 
Q 14.5 37.15625 16.890625 35.375 
Q 19.28125 33.59375 26.515625 31.984375 
L 29.59375 31.296875 
Q 39.15625 29.25 43.1875 25.515625 
Q 47.21875 21.78125 47.21875 15.09375 
Q 47.21875 7.46875 41.1875 3.015625 
Q 35.15625 -1.421875 24.609375 -1.421875 
Q 20.21875 -1.421875 15.453125 -0.5625 
Q 10.6875 0.296875 5.421875 2 
L 5.421875 11.28125 
Q 10.40625 8.6875 15.234375 7.390625 
Q 20.0625 6.109375 24.8125 6.109375 
Q 31.15625 6.109375 34.5625 8.28125 
Q 37.984375 10.453125 37.984375 14.40625 
Q 37.984375 18.0625 35.515625 20.015625 
Q 33.0625 21.96875 24.703125 23.78125 
L 21.578125 24.515625 
Q 13.234375 26.265625 9.515625 29.90625 
Q 5.8125 33.546875 5.8125 39.890625 
Q 5.8125 47.609375 11.28125 51.796875 
Q 16.75 56 26.8125 56 
Q 31.78125 56 36.171875 55.265625 
Q 40.578125 54.546875 44.28125 53.078125 
z
" id="DejaVuSans-115"/>
      <path d="M 41.109375 46.296875 
Q 39.59375 47.171875 37.8125 47.578125 
Q 36.03125 48 33.890625 48 
Q 26.265625 48 22.1875 43.046875 
Q 18.109375 38.09375 18.109375 28.8125 
L 18.109375 0 
L 9.078125 0 
L 9.078125 54.6875 
L 18.109375 54.6875 
L 18.109375 46.1875 
Q 20.953125 51.171875 25.484375 53.578125 
Q 30.03125 56 36.53125 56 
Q 37.453125 56 38.578125 55.875 
Q 39.703125 55.765625 41.0625 55.515625 
z
" id="DejaVuSans-114"/>
     </defs>
     <g transform="translate(15.470312 169.776094)rotate(-90)scale(0.1 -0.1)">
      <use xlink:href="#DejaVuSans-78"/>
      <use x="74.804688" xlink:href="#DejaVuSans-101"/>
      <use x="136.328125" xlink:href="#DejaVuSans-119"/>
      <use x="218.115234" xlink:href="#DejaVuSans-32"/>
      <use x="249.902344" xlink:href="#DejaVuSans-85"/>
      <use x="323.095703" xlink:href="#DejaVuSans-115"/>
      <use x="375.195312" xlink:href="#DejaVuSans-101"/>
      <use x="436.71875" xlink:href="#DejaVuSans-114"/>
      <use x="477.832031" xlink:href="#DejaVuSans-115"/>
     </g>
    </g>
   </g>
   <g id="patch_3">
    <path d="M 54 252 
L 54 34.56 
" style="fill:none;stroke:#000000;stroke-linecap:square;stroke-linejoin:miter;stroke-width:0.8;"/>
   </g>
   <g id="patch_4">
    <path d="M 388.8 252 
L 388.8 34.56 
" style="fill:none;stroke:#000000;stroke-linecap:square;stroke-linejoin:miter;stroke-width:0.8;"/>
   </g>
   <g id="patch_5">
    <path d="M 54 252 
L 388.8 252 
" style="fill:none;stroke:#000000;stroke-linecap:square;stroke-linejoin:miter;stroke-width:0.8;"/>
   </g>
   <g id="patch_6">
    <path d="M 54 34.56 
L 388.8 34.56 
" style="fill:none;stroke:#000000;stroke-linecap:square;stroke-linejoin:miter;stroke-width:0.8;"/>
   </g>
  </g>
 </g>
 <defs>
  <clipPath id="p2d69f4ac9c">
   <rect height="217.44" width="334.8" x="54" y="34.56"/>
  </clipPath>
 </defs>
</svg>
