<?xml version="1.0" encoding="utf-8" standalone="no"?>
<!DOCTYPE svg PUBLIC "-//W3C//DTD SVG 1.1//EN"
  "http://www.w3.org/Graphics/SVG/1.1/DTD/svg11.dtd">
<!-- Created with matplotlib (https://matplotlib.org/) -->
<svg height="288pt" version="1.1" viewBox="0 0 432 288" width="432pt" xmlns="http://www.w3.org/2000/svg" xmlns:xlink="http://www.w3.org/1999/xlink">
 <defs>
  <style type="text/css">
*{stroke-linecap:butt;stroke-linejoin:round;}
  </style>
 </defs>
 <g id="figure_1">
  <g id="patch_1">
   <path d="M 0 288 
L 432 288 
L 432 0 
L 0 0 
z
" style="fill:#ffffff;"/>
  </g>
  <g id="axes_1">
   <g id="patch_2">
    <path d="M 54 252 
L 388.8 252 
L 388.8 34.56 
L 54 34.56 
z
" style="fill:#eaeaf2;"/>
   </g>
   <g id="matplotlib.axis_1">
    <g id="xtick_1">
     <g id="line2d_1">
      <path clip-path="url(#pdf2800354d)" d="M 68.224213 252 
L 68.224213 34.56 
" style="fill:none;stroke:#ffffff;stroke-linecap:round;"/>
     </g>
     <g id="text_1">
      <!-- 0 -->
      <defs>
       <path d="M 31.78125 66.40625 
Q 24.171875 66.40625 20.328125 58.90625 
Q 16.5 51.421875 16.5 36.375 
Q 16.5 21.390625 20.328125 13.890625 
Q 24.171875 6.390625 31.78125 6.390625 
Q 39.453125 6.390625 43.28125 13.890625 
Q 47.125 21.390625 47.125 36.375 
Q 47.125 51.421875 43.28125 58.90625 
Q 39.453125 66.40625 31.78125 66.40625 
z
M 31.78125 74.21875 
Q 44.046875 74.21875 50.515625 64.515625 
Q 56.984375 54.828125 56.984375 36.375 
Q 56.984375 17.96875 50.515625 8.265625 
Q 44.046875 -1.421875 31.78125 -1.421875 
Q 19.53125 -1.421875 13.0625 8.265625 
Q 6.59375 17.96875 6.59375 36.375 
Q 6.59375 54.828125 13.0625 64.515625 
Q 19.53125 74.21875 31.78125 74.21875 
z
" id="DejaVuSans-48"/>
      </defs>
      <g style="fill:#262626;" transform="translate(64.724838 269.858281)scale(0.11 -0.11)">
       <use xlink:href="#DejaVuSans-48"/>
      </g>
     </g>
    </g>
    <g id="xtick_2">
     <g id="line2d_2">
      <path clip-path="url(#pdf2800354d)" d="M 120.538348 252 
L 120.538348 34.56 
" style="fill:none;stroke:#ffffff;stroke-linecap:round;"/>
     </g>
     <g id="text_2">
      <!-- 1000 -->
      <defs>
       <path d="M 12.40625 8.296875 
L 28.515625 8.296875 
L 28.515625 63.921875 
L 10.984375 60.40625 
L 10.984375 69.390625 
L 28.421875 72.90625 
L 38.28125 72.90625 
L 38.28125 8.296875 
L 54.390625 8.296875 
L 54.390625 0 
L 12.40625 0 
z
" id="DejaVuSans-49"/>
      </defs>
      <g style="fill:#262626;" transform="translate(106.540848 269.858281)scale(0.11 -0.11)">
       <use xlink:href="#DejaVuSans-49"/>
       <use x="63.623047" xlink:href="#DejaVuSans-48"/>
       <use x="127.246094" xlink:href="#DejaVuSans-48"/>
       <use x="190.869141" xlink:href="#DejaVuSans-48"/>
      </g>
     </g>
    </g>
    <g id="xtick_3">
     <g id="line2d_3">
      <path clip-path="url(#pdf2800354d)" d="M 172.852483 252 
L 172.852483 34.56 
" style="fill:none;stroke:#ffffff;stroke-linecap:round;"/>
     </g>
     <g id="text_3">
      <!-- 2000 -->
      <defs>
       <path d="M 19.1875 8.296875 
L 53.609375 8.296875 
L 53.609375 0 
L 7.328125 0 
L 7.328125 8.296875 
Q 12.9375 14.109375 22.625 23.890625 
Q 32.328125 33.6875 34.8125 36.53125 
Q 39.546875 41.84375 41.421875 45.53125 
Q 43.3125 49.21875 43.3125 52.78125 
Q 43.3125 58.59375 39.234375 62.25 
Q 35.15625 65.921875 28.609375 65.921875 
Q 23.96875 65.921875 18.8125 64.3125 
Q 13.671875 62.703125 7.8125 59.421875 
L 7.8125 69.390625 
Q 13.765625 71.78125 18.9375 73 
Q 24.125 74.21875 28.421875 74.21875 
Q 39.75 74.21875 46.484375 68.546875 
Q 53.21875 62.890625 53.21875 53.421875 
Q 53.21875 48.921875 51.53125 44.890625 
Q 49.859375 40.875 45.40625 35.40625 
Q 44.1875 33.984375 37.640625 27.21875 
Q 31.109375 20.453125 19.1875 8.296875 
z
" id="DejaVuSans-50"/>
      </defs>
      <g style="fill:#262626;" transform="translate(158.854983 269.858281)scale(0.11 -0.11)">
       <use xlink:href="#DejaVuSans-50"/>
       <use x="63.623047" xlink:href="#DejaVuSans-48"/>
       <use x="127.246094" xlink:href="#DejaVuSans-48"/>
       <use x="190.869141" xlink:href="#DejaVuSans-48"/>
      </g>
     </g>
    </g>
    <g id="xtick_4">
     <g id="line2d_4">
      <path clip-path="url(#pdf2800354d)" d="M 225.166618 252 
L 225.166618 34.56 
" style="fill:none;stroke:#ffffff;stroke-linecap:round;"/>
     </g>
     <g id="text_4">
      <!-- 3000 -->
      <defs>
       <path d="M 40.578125 39.3125 
Q 47.65625 37.796875 51.625 33 
Q 55.609375 28.21875 55.609375 21.1875 
Q 55.609375 10.40625 48.1875 4.484375 
Q 40.765625 -1.421875 27.09375 -1.421875 
Q 22.515625 -1.421875 17.65625 -0.515625 
Q 12.796875 0.390625 7.625 2.203125 
L 7.625 11.71875 
Q 11.71875 9.328125 16.59375 8.109375 
Q 21.484375 6.890625 26.8125 6.890625 
Q 36.078125 6.890625 40.9375 10.546875 
Q 45.796875 14.203125 45.796875 21.1875 
Q 45.796875 27.640625 41.28125 31.265625 
Q 36.765625 34.90625 28.71875 34.90625 
L 20.21875 34.90625 
L 20.21875 43.015625 
L 29.109375 43.015625 
Q 36.375 43.015625 40.234375 45.921875 
Q 44.09375 48.828125 44.09375 54.296875 
Q 44.09375 59.90625 40.109375 62.90625 
Q 36.140625 65.921875 28.71875 65.921875 
Q 24.65625 65.921875 20.015625 65.03125 
Q 15.375 64.15625 9.8125 62.3125 
L 9.8125 71.09375 
Q 15.4375 72.65625 20.34375 73.4375 
Q 25.25 74.21875 29.59375 74.21875 
Q 40.828125 74.21875 47.359375 69.109375 
Q 53.90625 64.015625 53.90625 55.328125 
Q 53.90625 49.265625 50.4375 45.09375 
Q 46.96875 40.921875 40.578125 39.3125 
z
" id="DejaVuSans-51"/>
      </defs>
      <g style="fill:#262626;" transform="translate(211.169118 269.858281)scale(0.11 -0.11)">
       <use xlink:href="#DejaVuSans-51"/>
       <use x="63.623047" xlink:href="#DejaVuSans-48"/>
       <use x="127.246094" xlink:href="#DejaVuSans-48"/>
       <use x="190.869141" xlink:href="#DejaVuSans-48"/>
      </g>
     </g>
    </g>
    <g id="xtick_5">
     <g id="line2d_5">
      <path clip-path="url(#pdf2800354d)" d="M 277.480753 252 
L 277.480753 34.56 
" style="fill:none;stroke:#ffffff;stroke-linecap:round;"/>
     </g>
     <g id="text_5">
      <!-- 4000 -->
      <defs>
       <path d="M 37.796875 64.3125 
L 12.890625 25.390625 
L 37.796875 25.390625 
z
M 35.203125 72.90625 
L 47.609375 72.90625 
L 47.609375 25.390625 
L 58.015625 25.390625 
L 58.015625 17.1875 
L 47.609375 17.1875 
L 47.609375 0 
L 37.796875 0 
L 37.796875 17.1875 
L 4.890625 17.1875 
L 4.890625 26.703125 
z
" id="DejaVuSans-52"/>
      </defs>
      <g style="fill:#262626;" transform="translate(263.483253 269.858281)scale(0.11 -0.11)">
       <use xlink:href="#DejaVuSans-52"/>
       <use x="63.623047" xlink:href="#DejaVuSans-48"/>
       <use x="127.246094" xlink:href="#DejaVuSans-48"/>
       <use x="190.869141" xlink:href="#DejaVuSans-48"/>
      </g>
     </g>
    </g>
    <g id="xtick_6">
     <g id="line2d_6">
      <path clip-path="url(#pdf2800354d)" d="M 329.794887 252 
L 329.794887 34.56 
" style="fill:none;stroke:#ffffff;stroke-linecap:round;"/>
     </g>
     <g id="text_6">
      <!-- 5000 -->
      <defs>
       <path d="M 10.796875 72.90625 
L 49.515625 72.90625 
L 49.515625 64.59375 
L 19.828125 64.59375 
L 19.828125 46.734375 
Q 21.96875 47.46875 24.109375 47.828125 
Q 26.265625 48.1875 28.421875 48.1875 
Q 40.625 48.1875 47.75 41.5 
Q 54.890625 34.8125 54.890625 23.390625 
Q 54.890625 11.625 47.5625 5.09375 
Q 40.234375 -1.421875 26.90625 -1.421875 
Q 22.3125 -1.421875 17.546875 -0.640625 
Q 12.796875 0.140625 7.71875 1.703125 
L 7.71875 11.625 
Q 12.109375 9.234375 16.796875 8.0625 
Q 21.484375 6.890625 26.703125 6.890625 
Q 35.15625 6.890625 40.078125 11.328125 
Q 45.015625 15.765625 45.015625 23.390625 
Q 45.015625 31 40.078125 35.4375 
Q 35.15625 39.890625 26.703125 39.890625 
Q 22.75 39.890625 18.8125 39.015625 
Q 14.890625 38.140625 10.796875 36.28125 
z
" id="DejaVuSans-53"/>
      </defs>
      <g style="fill:#262626;" transform="translate(315.797387 269.858281)scale(0.11 -0.11)">
       <use xlink:href="#DejaVuSans-53"/>
       <use x="63.623047" xlink:href="#DejaVuSans-48"/>
       <use x="127.246094" xlink:href="#DejaVuSans-48"/>
       <use x="190.869141" xlink:href="#DejaVuSans-48"/>
      </g>
     </g>
    </g>
    <g id="xtick_7">
     <g id="line2d_7">
      <path clip-path="url(#pdf2800354d)" d="M 382.109022 252 
L 382.109022 34.56 
" style="fill:none;stroke:#ffffff;stroke-linecap:round;"/>
     </g>
     <g id="text_7">
      <!-- 6000 -->
      <defs>
       <path d="M 33.015625 40.375 
Q 26.375 40.375 22.484375 35.828125 
Q 18.609375 31.296875 18.609375 23.390625 
Q 18.609375 15.53125 22.484375 10.953125 
Q 26.375 6.390625 33.015625 6.390625 
Q 39.65625 6.390625 43.53125 10.953125 
Q 47.40625 15.53125 47.40625 23.390625 
Q 47.40625 31.296875 43.53125 35.828125 
Q 39.65625 40.375 33.015625 40.375 
z
M 52.59375 71.296875 
L 52.59375 62.3125 
Q 48.875 64.0625 45.09375 64.984375 
Q 41.3125 65.921875 37.59375 65.921875 
Q 27.828125 65.921875 22.671875 59.328125 
Q 17.53125 52.734375 16.796875 39.40625 
Q 19.671875 43.65625 24.015625 45.921875 
Q 28.375 48.1875 33.59375 48.1875 
Q 44.578125 48.1875 50.953125 41.515625 
Q 57.328125 34.859375 57.328125 23.390625 
Q 57.328125 12.15625 50.6875 5.359375 
Q 44.046875 -1.421875 33.015625 -1.421875 
Q 20.359375 -1.421875 13.671875 8.265625 
Q 6.984375 17.96875 6.984375 36.375 
Q 6.984375 53.65625 15.1875 63.9375 
Q 23.390625 74.21875 37.203125 74.21875 
Q 40.921875 74.21875 44.703125 73.484375 
Q 48.484375 72.75 52.59375 71.296875 
z
" id="DejaVuSans-54"/>
      </defs>
      <g style="fill:#262626;" transform="translate(368.111522 269.858281)scale(0.11 -0.11)">
       <use xlink:href="#DejaVuSans-54"/>
       <use x="63.623047" xlink:href="#DejaVuSans-48"/>
       <use x="127.246094" xlink:href="#DejaVuSans-48"/>
       <use x="190.869141" xlink:href="#DejaVuSans-48"/>
      </g>
     </g>
    </g>
   </g>
   <g id="matplotlib.axis_2">
    <g id="ytick_1">
     <g id="line2d_8">
      <path clip-path="url(#pdf2800354d)" d="M 54 242.409212 
L 388.8 242.409212 
" style="fill:none;stroke:#ffffff;stroke-linecap:round;"/>
     </g>
     <g id="text_8">
      <!-- 0 -->
      <g style="fill:#262626;" transform="translate(37.50125 246.588353)scale(0.11 -0.11)">
       <use xlink:href="#DejaVuSans-48"/>
      </g>
     </g>
    </g>
    <g id="ytick_2">
     <g id="line2d_9">
      <path clip-path="url(#pdf2800354d)" d="M 54 213.124364 
L 388.8 213.124364 
" style="fill:none;stroke:#ffffff;stroke-linecap:round;"/>
     </g>
     <g id="text_9">
      <!-- 100 -->
      <g style="fill:#262626;" transform="translate(23.50375 217.303504)scale(0.11 -0.11)">
       <use xlink:href="#DejaVuSans-49"/>
       <use x="63.623047" xlink:href="#DejaVuSans-48"/>
       <use x="127.246094" xlink:href="#DejaVuSans-48"/>
      </g>
     </g>
    </g>
    <g id="ytick_3">
     <g id="line2d_10">
      <path clip-path="url(#pdf2800354d)" d="M 54 183.839515 
L 388.8 183.839515 
" style="fill:none;stroke:#ffffff;stroke-linecap:round;"/>
     </g>
     <g id="text_10">
      <!-- 200 -->
      <g style="fill:#262626;" transform="translate(23.50375 188.018656)scale(0.11 -0.11)">
       <use xlink:href="#DejaVuSans-50"/>
       <use x="63.623047" xlink:href="#DejaVuSans-48"/>
       <use x="127.246094" xlink:href="#DejaVuSans-48"/>
      </g>
     </g>
    </g>
    <g id="ytick_4">
     <g id="line2d_11">
      <path clip-path="url(#pdf2800354d)" d="M 54 154.554667 
L 388.8 154.554667 
" style="fill:none;stroke:#ffffff;stroke-linecap:round;"/>
     </g>
     <g id="text_11">
      <!-- 300 -->
      <g style="fill:#262626;" transform="translate(23.50375 158.733807)scale(0.11 -0.11)">
       <use xlink:href="#DejaVuSans-51"/>
       <use x="63.623047" xlink:href="#DejaVuSans-48"/>
       <use x="127.246094" xlink:href="#DejaVuSans-48"/>
      </g>
     </g>
    </g>
    <g id="ytick_5">
     <g id="line2d_12">
      <path clip-path="url(#pdf2800354d)" d="M 54 125.269818 
L 388.8 125.269818 
" style="fill:none;stroke:#ffffff;stroke-linecap:round;"/>
     </g>
     <g id="text_12">
      <!-- 400 -->
      <g style="fill:#262626;" transform="translate(23.50375 129.448959)scale(0.11 -0.11)">
       <use xlink:href="#DejaVuSans-52"/>
       <use x="63.623047" xlink:href="#DejaVuSans-48"/>
       <use x="127.246094" xlink:href="#DejaVuSans-48"/>
      </g>
     </g>
    </g>
    <g id="ytick_6">
     <g id="line2d_13">
      <path clip-path="url(#pdf2800354d)" d="M 54 95.98497 
L 388.8 95.98497 
" style="fill:none;stroke:#ffffff;stroke-linecap:round;"/>
     </g>
     <g id="text_13">
      <!-- 500 -->
      <g style="fill:#262626;" transform="translate(23.50375 100.16411)scale(0.11 -0.11)">
       <use xlink:href="#DejaVuSans-53"/>
       <use x="63.623047" xlink:href="#DejaVuSans-48"/>
       <use x="127.246094" xlink:href="#DejaVuSans-48"/>
      </g>
     </g>
    </g>
    <g id="ytick_7">
     <g id="line2d_14">
      <path clip-path="url(#pdf2800354d)" d="M 54 66.700121 
L 388.8 66.700121 
" style="fill:none;stroke:#ffffff;stroke-linecap:round;"/>
     </g>
     <g id="text_14">
      <!-- 600 -->
      <g style="fill:#262626;" transform="translate(23.50375 70.879262)scale(0.11 -0.11)">
       <use xlink:href="#DejaVuSans-54"/>
       <use x="63.623047" xlink:href="#DejaVuSans-48"/>
       <use x="127.246094" xlink:href="#DejaVuSans-48"/>
      </g>
     </g>
    </g>
    <g id="ytick_8">
     <g id="line2d_15">
      <path clip-path="url(#pdf2800354d)" d="M 54 37.415273 
L 388.8 37.415273 
" style="fill:none;stroke:#ffffff;stroke-linecap:round;"/>
     </g>
     <g id="text_15">
      <!-- 700 -->
      <defs>
       <path d="M 8.203125 72.90625 
L 55.078125 72.90625 
L 55.078125 68.703125 
L 28.609375 0 
L 18.3125 0 
L 43.21875 64.59375 
L 8.203125 64.59375 
z
" id="DejaVuSans-55"/>
      </defs>
      <g style="fill:#262626;" transform="translate(23.50375 41.594413)scale(0.11 -0.11)">
       <use xlink:href="#DejaVuSans-55"/>
       <use x="63.623047" xlink:href="#DejaVuSans-48"/>
       <use x="127.246094" xlink:href="#DejaVuSans-48"/>
      </g>
     </g>
    </g>
   </g>
   <g id="line2d_16">
    <path clip-path="url(#pdf2800354d)" d="M 69.218182 241.193891 
L 69.270496 241.267103 
L 69.427438 242.116364 
L 70.578349 242.013867 
L 70.787606 241.969939 
L 71.101491 242.043152 
L 72.304716 242.057794 
L 72.409344 241.823515 
L 72.461658 241.838158 
L 73.350998 241.838158 
L 73.507941 242.072436 
L 76.28059 241.969939 
L 76.542161 241.999224 
L 77.065302 242.043152 
L 91.08549 241.940655 
L 91.399375 241.955297 
L 91.71326 241.955297 
L 91.870202 242.087079 
L 94.590537 241.984582 
L 94.799794 241.940655 
L 98.409469 241.838158 
L 98.67104 241.838158 
L 98.880296 241.926012 
L 99.351123 240.783903 
L 99.926579 239.934642 
L 99.978893 240.051782 
L 100.031207 240.037139 
L 100.292778 240.46177 
L 100.345092 240.417842 
L 100.397406 240.505697 
L 100.554349 240.534982 
L 101.07749 240.754618 
L 101.286746 240.622836 
L 101.443689 240.652121 
L 101.70526 240.739976 
L 101.862202 240.652121 
L 102.542286 240.94497 
L 102.699228 241.003539 
L 103.013113 241.003539 
L 103.431626 240.901042 
L 103.48394 241.018182 
L 103.536254 240.94497 
L 103.797825 240.974255 
L 103.850139 241.062109 
L 103.902453 240.974255 
L 104.059396 240.94497 
L 104.11171 240.8864 
L 104.164024 240.94497 
L 104.37328 241.062109 
L 104.896422 240.974255 
L 104.948736 241.047467 
L 105.00105 240.974255 
L 105.419563 241.076752 
L 105.733448 241.164606 
L 105.942704 240.988897 
L 106.204275 241.003539 
L 106.413532 240.930327 
L 106.51816 240.901042 
L 106.727416 240.8864 
L 107.302872 241.106036 
L 107.4075 241.091394 
L 107.616757 241.193891 
L 107.826013 241.076752 
L 108.715354 241.179248 
L 109.133867 241.31103 
L 109.238495 241.267103 
L 109.447751 241.3696 
L 109.81395 241.3696 
L 110.180149 241.267103 
L 111.017176 240.94497 
L 111.121804 240.930327 
L 111.592631 241.091394 
L 111.801888 241.047467 
L 112.011144 241.106036 
L 112.220401 241.003539 
L 112.84817 241.106036 
L 112.952799 240.988897 
L 113.005113 241.106036 
L 113.318997 241.296388 
L 113.47594 241.252461 
L 113.580568 241.354958 
L 113.632882 241.281745 
L 113.789825 241.281745 
L 113.894453 241.340315 
L 114.051395 241.384242 
L 114.208338 241.296388 
L 114.417594 241.281745 
L 114.626851 241.164606 
L 114.783793 241.208533 
L 114.99305 241.179248 
L 115.411563 241.047467 
L 115.673134 241.091394 
L 116.039332 240.871758 
L 116.405531 241.164606 
L 116.77173 241.193891 
L 116.980987 241.472097 
L 117.137929 241.457455 
L 117.190243 241.530667 
L 117.242558 241.486739 
L 117.451814 241.384242 
L 117.661071 241.398885 
L 118.498097 241.31103 
L 118.550411 241.281745 
L 118.655039 241.398885 
L 118.707353 241.3696 
L 119.230495 241.325673 
L 119.54438 241.457455 
L 119.649008 241.442812 
L 119.80595 241.472097 
L 119.910578 241.574594 
L 119.962893 241.530667 
L 120.224463 241.442812 
L 120.538348 241.3696 
L 120.852233 241.325673 
L 121.009175 241.193891 
L 121.113804 241.223176 
L 121.218432 241.135321 
L 121.375374 241.179248 
L 121.741573 240.930327 
L 121.846201 240.974255 
L 121.95083 240.959612 
L 122.369343 240.988897 
L 122.473971 240.974255 
L 122.735542 241.062109 
L 122.84017 240.959612 
L 122.892484 241.003539 
L 123.049427 241.003539 
L 123.624882 241.106036 
L 123.938767 240.915685 
L 124.043395 240.871758 
L 124.200338 240.798545 
L 124.252652 240.739976 
L 124.304966 240.813188 
L 124.461908 240.842473 
L 125.822076 240.842473 
L 125.979018 241.032824 
L 126.031332 240.959612 
L 126.083646 241.003539 
L 126.868358 241.135321 
L 127.339186 241.091394 
L 127.3915 241.179248 
L 127.443814 241.106036 
L 127.65307 241.106036 
L 129.379437 241.018182 
L 129.745636 240.842473 
L 130.111835 241.062109 
L 130.216463 240.930327 
L 130.268777 240.974255 
L 131.472002 241.047467 
L 131.681259 241.120679 
L 132.256714 241.135321 
L 132.309028 241.252461 
L 132.361343 241.179248 
L 132.570599 241.135321 
L 132.622913 241.164606 
L 132.884484 240.857115 
L 133.146055 240.8864 
L 133.302997 240.930327 
L 133.564568 240.783903 
L 134.087709 241.003539 
L 134.296966 240.959612 
L 134.453908 240.901042 
L 134.506222 241.047467 
L 134.558536 241.003539 
L 134.663164 240.988897 
L 134.820107 241.120679 
L 134.924735 241.164606 
L 135.133992 241.354958 
L 135.604819 241.545309 
L 136.232589 241.135321 
L 136.337217 241.062109 
L 136.494159 241.047467 
L 136.598787 241.106036 
L 136.75573 241.032824 
L 136.912672 241.076752 
L 137.64507 240.959612 
L 137.802013 241.076752 
L 137.906641 241.091394 
L 138.011269 240.974255 
L 138.063583 241.018182 
L 138.325154 240.871758 
L 138.586725 240.974255 
L 138.795981 240.901042 
L 139.005238 240.842473 
L 139.266808 240.8864 
L 139.685321 240.82783 
L 139.842264 240.710691 
L 139.946892 240.725333 
L 140.156149 240.608194 
L 140.417719 240.857115 
L 141.30706 240.754618 
L 141.673259 240.637479 
L 141.725573 240.652121 
L 141.882515 240.476412 
L 141.987143 240.417842 
L 142.144086 240.549624 
L 142.353342 240.4032 
L 142.457971 240.534982 
L 142.614913 240.46177 
L 143.242683 240.739976 
L 143.399625 240.813188 
L 143.504253 240.666764 
L 143.661196 240.739976 
L 144.550536 240.593552 
L 144.864421 240.681406 
L 145.021363 240.593552 
L 145.178306 240.681406 
L 145.387562 240.578909 
L 145.49219 240.725333 
L 145.544505 240.681406 
L 145.596819 240.696048 
L 145.753761 240.578909 
L 145.858389 240.637479 
L 145.910703 240.564267 
L 145.963018 240.652121 
L 146.11996 240.593552 
L 146.643101 240.491055 
L 146.695415 240.564267 
L 146.74773 240.505697 
L 146.904672 240.432485 
L 147.0093 240.491055 
L 147.113929 240.329988 
L 147.166243 240.46177 
L 147.218557 240.534982 
L 147.270871 240.432485 
L 147.480128 240.256776 
L 147.950955 240.34463 
L 148.055583 239.993212 
L 148.107897 240.007855 
L 148.160211 240.110352 
L 148.212525 240.007855 
L 148.26484 239.963927 
L 148.317154 240.051782 
L 148.474096 240.124994 
L 148.997237 240.022497 
L 149.101866 240.242133 
L 149.15418 240.227491 
L 149.677321 240.637479 
L 149.938892 240.871758 
L 150.04352 240.725333 
L 150.095834 240.769261 
L 150.200463 240.82783 
L 150.566661 240.608194 
L 150.67129 240.681406 
L 150.723604 240.622836 
L 150.775918 240.505697 
L 150.828232 240.534982 
L 151.874515 241.018182 
L 152.1884 240.783903 
L 152.240714 240.681406 
L 152.397656 240.82783 
L 152.554599 240.783903 
L 153.025426 240.725333 
L 153.130054 240.871758 
L 153.182368 240.82783 
L 153.391625 240.959612 
L 153.653195 240.974255 
L 153.70551 240.813188 
L 153.757824 240.857115 
L 154.019394 240.988897 
L 154.176337 240.974255 
L 154.333279 241.062109 
L 154.856421 241.267103 
L 155.798075 240.813188 
L 155.850389 240.857115 
L 155.902703 240.783903 
L 156.007331 240.754618 
L 156.059646 240.857115 
L 156.11196 240.82783 
L 156.478159 240.813188 
L 156.687415 240.930327 
L 156.896672 240.8864 
L 157.210557 241.076752 
L 157.786012 241.062109 
L 157.89064 240.901042 
L 157.942954 240.930327 
L 158.099897 240.754618 
L 158.256839 240.769261 
L 158.413782 240.696048 
L 158.570724 240.754618 
L 158.727666 240.505697 
L 159.041551 240.447127 
L 159.40775 240.447127 
L 159.773949 240.622836 
L 160.03552 240.710691 
L 160.454033 240.315345 
L 160.663289 239.92 
L 161.134117 239.963927 
L 161.238745 239.905358 
L 161.395687 240.051782 
L 161.761886 240.388558 
L 161.8142 240.432485 
L 161.918829 240.286061 
L 161.971143 240.329988 
L 162.128085 240.315345 
L 162.285028 240.359273 
L 162.494284 240.066424 
L 162.651227 240.037139 
L 163.226682 239.656436 
L 163.540567 239.934642 
L 163.749823 239.905358 
L 163.802138 240.037139 
L 163.854452 240.007855 
L 163.95908 240.051782 
L 164.168337 240.388558 
L 164.953049 240.373915 
L 165.005363 240.256776 
L 165.057677 240.300703 
L 165.214619 240.300703 
L 165.423876 240.388558 
L 165.633132 240.564267 
L 165.737761 240.491055 
L 165.790075 240.534982 
L 165.947017 240.652121 
L 166.103959 240.622836 
L 166.208588 240.681406 
L 166.470158 240.227491 
L 166.627101 240.286061 
L 167.045614 240.007855 
L 167.150242 239.949285 
L 167.202556 239.832145 
L 167.25487 239.876073 
L 167.411813 240.037139 
L 167.568755 240.007855 
L 167.673384 239.993212 
L 167.88264 240.037139 
L 167.934954 239.949285 
L 167.987268 240.022497 
L 168.144211 240.168921 
L 168.405781 240.212848 
L 168.51041 240.110352 
L 168.562724 240.154279 
L 168.719666 240.051782 
L 169.452064 239.92 
L 169.556692 240.066424 
L 169.609007 239.993212 
L 169.765949 240.051782 
L 169.922891 240.066424 
L 170.02752 240.124994 
L 170.28909 240.183564 
L 170.498347 240.095709 
L 170.969174 240.329988 
L 171.073802 240.417842 
L 171.178431 240.34463 
L 171.492315 240.447127 
L 171.596944 240.315345 
L 171.753886 240.432485 
L 171.8062 240.329988 
L 171.858514 240.417842 
L 172.015457 240.432485 
L 172.067771 240.505697 
L 172.120085 240.4032 
L 172.43397 240.271418 
L 172.643226 240.608194 
L 173.114054 240.710691 
L 173.427938 241.091394 
L 173.689509 241.076752 
L 173.794137 241.091394 
L 173.898766 241.135321 
L 174.160336 240.959612 
L 174.264965 240.930327 
L 174.474221 240.842473 
L 174.578849 240.842473 
L 174.735792 240.666764 
L 174.945048 240.578909 
L 175.206619 240.608194 
L 175.363561 240.578909 
L 175.520504 240.534982 
L 175.572818 240.46177 
L 175.625132 240.520339 
L 175.677446 240.652121 
L 175.72976 240.608194 
L 175.886703 240.417842 
L 176.043645 240.46177 
L 176.566786 240.505697 
L 176.723729 240.520339 
L 176.932985 240.769261 
L 177.508441 239.993212 
L 177.770012 240.168921 
L 178.450095 239.890715 
L 178.502409 239.832145 
L 178.554724 239.934642 
L 178.659352 239.86143 
L 178.920923 239.597867 
L 179.287121 239.568582 
L 179.39175 239.685721 
L 179.65332 239.363588 
L 180.385718 239.026812 
L 180.804231 239.466085 
L 181.118116 239.085382 
L 181.275059 239.305018 
L 181.432001 239.173236 
L 181.536629 239.319661 
L 181.588943 239.275733 
L 181.745886 239.217164 
L 181.7982 239.202521 
L 181.902828 239.056097 
L 182.373655 239.685721 
L 182.582912 239.612509 
L 182.68754 239.758933 
L 182.739854 239.583224 
L 182.792169 239.627152 
L 183.001425 239.788218 
L 183.158367 239.568582 
L 183.262996 239.539297 
L 183.419938 239.510012 
L 183.472252 239.524655 
L 183.524566 239.37823 
L 183.576881 239.480727 
L 184.047708 239.524655 
L 184.100022 239.612509 
L 184.152336 239.524655 
L 184.256964 239.348945 
L 184.309278 239.392873 
L 184.570849 239.539297 
L 184.727791 239.37823 
L 185.146305 239.363588 
L 185.303247 239.392873 
L 186.192587 239.158594 
L 186.34953 239.246448 
L 186.558786 239.202521 
L 186.663414 239.290376 
L 186.715729 239.363588 
L 186.768043 239.202521 
L 186.820357 239.275733 
L 187.186556 239.231806 
L 187.291184 239.129309 
L 187.500441 239.290376 
L 187.552755 239.173236 
L 187.605069 239.231806 
L 187.709697 239.363588 
L 187.762011 239.305018 
L 187.918954 239.246448 
L 187.971268 239.290376 
L 188.075896 239.173236 
L 188.12821 239.261091 
L 188.180524 239.158594 
L 188.232839 239.129309 
L 188.285153 239.246448 
L 188.337467 239.187879 
L 188.442095 239.217164 
L 188.651352 239.319661 
L 188.808294 239.319661 
L 188.860608 239.524655 
L 188.912922 239.407515 
L 189.174493 239.305018 
L 189.383749 239.524655 
L 189.593006 239.700364 
L 189.64532 239.627152 
L 189.906891 239.392873 
L 190.063833 239.685721 
L 190.116147 239.641794 
L 190.220776 239.641794 
L 190.325404 239.685721 
L 190.53466 239.480727 
L 190.639289 239.363588 
L 191.110116 240.007855 
L 191.214744 239.905358 
L 191.319372 239.715006 
L 191.371687 239.802861 
L 191.528629 239.934642 
L 191.633257 240.007855 
L 191.737886 240.022497 
L 191.7902 240.168921 
L 191.842514 240.095709 
L 192.156399 240.066424 
L 192.627226 240.798545 
L 192.836482 240.593552 
L 192.941111 240.622836 
L 193.673509 239.890715 
L 193.987393 240.139636 
L 194.248964 240.256776 
L 194.301278 240.139636 
L 194.353592 240.183564 
L 194.405906 240.256776 
L 194.562849 240.066424 
L 194.772105 240.095709 
L 195.190618 239.656436 
L 195.399875 239.773576 
L 195.97533 239.832145 
L 196.132273 239.890715 
L 196.341529 239.744291 
L 196.498472 239.671079 
L 196.6031 239.700364 
L 196.707728 239.583224 
L 196.760043 239.612509 
L 196.969299 239.612509 
L 197.126241 239.422158 
L 197.178556 239.480727 
L 197.23087 239.510012 
L 197.387812 239.685721 
L 197.440126 239.715006 
L 197.544755 239.612509 
L 197.754011 239.802861 
L 197.963268 239.685721 
L 198.067896 239.788218 
L 198.277152 239.4368 
L 198.381781 239.49537 
L 198.695665 239.231806 
L 198.800294 239.407515 
L 198.904922 239.305018 
L 199.061864 239.231806 
L 199.323435 239.612509 
L 199.428063 239.466085 
L 199.689634 239.612509 
L 200.003519 239.480727 
L 200.055833 239.583224 
L 200.108147 239.480727 
L 200.317404 239.612509 
L 200.52666 239.524655 
L 200.578974 239.583224 
L 200.631288 239.466085 
L 200.683603 239.524655 
L 200.788231 239.451442 
L 201.049802 239.37823 
L 201.259058 239.143952 
L 201.416001 239.158594 
L 201.625257 239.056097 
L 201.834514 239.392873 
L 202.04377 239.49537 
L 202.200713 239.612509 
L 202.305341 239.583224 
L 202.514597 239.788218 
L 202.566911 239.715006 
L 202.619226 239.86143 
L 202.67154 239.685721 
L 202.880796 239.202521 
L 203.142367 238.89503 
L 203.403938 238.807176 
L 203.456252 238.733964 
L 203.508566 238.821818 
L 203.927079 238.909673 
L 203.979393 238.968242 
L 204.031707 238.909673 
L 204.136336 238.938958 
L 204.293278 239.143952 
L 204.45022 239.129309 
L 204.502534 239.026812 
L 204.554849 239.100024 
L 204.868733 239.085382 
L 204.921048 239.158594 
L 204.973362 239.041455 
L 205.07799 238.982885 
L 205.234932 238.748606 
L 205.287246 238.777891 
L 205.653445 238.9536 
L 205.862702 239.173236 
L 205.96733 239.158594 
L 206.019644 239.305018 
L 206.071958 239.231806 
L 206.438157 239.041455 
L 206.699728 238.719321 
L 206.752042 238.807176 
L 206.804356 238.733964 
L 207.065927 238.938958 
L 207.275184 239.334303 
L 207.589068 239.758933 
L 207.798325 239.597867 
L 208.059896 239.671079 
L 208.216838 239.466085 
L 208.321466 239.407515 
L 208.478409 239.348945 
L 208.687665 239.100024 
L 208.739979 239.114667 
L 208.896922 239.319661 
L 209.00155 239.334303 
L 209.106178 239.158594 
L 209.158492 239.231806 
L 209.315435 239.129309 
L 209.367749 239.231806 
L 209.681634 239.231806 
L 209.838576 239.451442 
L 210.257089 239.671079 
L 210.309403 239.539297 
L 210.361718 239.656436 
L 210.466346 239.729648 
L 210.51866 239.583224 
L 210.570974 239.700364 
L 210.780231 239.86143 
L 210.884859 239.700364 
L 211.094115 239.305018 
L 211.198744 239.4368 
L 211.251058 239.305018 
L 211.303372 239.392873 
L 211.355686 239.466085 
L 211.408 239.392873 
L 211.512629 239.422158 
L 211.617257 239.627152 
L 211.826513 239.363588 
L 212.088084 239.568582 
L 212.140398 239.597867 
L 212.349655 239.37823 
L 212.401969 239.334303 
L 212.454283 239.451442 
L 212.506597 239.422158 
L 212.768168 239.261091 
L 212.872796 239.246448 
L 213.029738 239.231806 
L 213.082053 239.305018 
L 213.134367 239.202521 
L 213.238995 239.143952 
L 213.448252 239.348945 
L 213.55288 239.143952 
L 213.605194 239.202521 
L 213.709822 239.319661 
L 213.762136 239.246448 
L 213.81445 239.187879 
L 213.866765 239.246448 
L 213.971393 239.261091 
L 214.285278 239.041455 
L 214.546848 239.041455 
L 215.174618 238.807176 
L 215.279246 238.968242 
L 215.540817 238.777891 
L 215.645445 238.792533 
L 215.802388 238.514327 
L 216.011644 238.602182 
L 216.168587 238.41183 
L 216.377843 238.236121 
L 216.5871 237.943273 
L 216.691728 237.884703 
L 217.110241 237.913988 
L 217.319497 237.752921 
L 217.47644 237.767564 
L 217.581068 237.606497 
L 217.633382 237.650424 
L 217.738011 237.665067 
L 217.790325 237.650424 
L 217.842639 237.460073 
L 217.894953 237.474715 
L 218.313466 237.796848 
L 218.418094 237.489358 
L 218.470408 237.621139 
L 218.522723 237.606497 
L 218.888922 238.250764 
L 219.412063 237.401503 
L 219.464377 237.401503 
L 219.88289 236.347248 
L 219.987518 236.435103 
L 220.039832 236.625455 
L 220.092147 236.522958 
L 220.196775 236.654739 
L 220.876859 237.752921 
L 221.033801 237.840776 
L 221.295372 237.738279 
L 221.347686 237.518642 
L 221.4 237.665067 
L 221.504628 237.621139 
L 221.766199 237.430788 
L 221.818513 237.547927 
L 221.870827 237.518642 
L 222.080084 237.372218 
L 222.184712 237.665067 
L 222.237026 237.606497 
L 222.446283 237.650424 
L 222.603225 237.430788 
L 222.707853 237.401503 
L 222.760168 237.547927 
L 222.812482 237.460073 
L 223.126366 237.416145 
L 223.178681 237.225794 
L 223.230995 237.299006 
L 223.283309 237.342933 
L 223.387937 237.006158 
L 223.440251 237.035442 
L 223.492565 237.006158 
L 223.649508 237.401503 
L 223.701822 237.342933 
L 224.015707 237.211152 
L 224.120335 237.225794 
L 224.277277 237.372218 
L 224.381906 237.533285 
L 224.643476 236.918303 
L 224.800419 237.196509 
L 224.852733 236.932945 
L 224.905047 237.050085 
L 225.061989 237.299006 
L 225.114304 237.269721 
L 225.166618 237.181867 
L 225.218932 237.225794 
L 225.428188 237.328291 
L 225.585131 237.796848 
L 225.689759 237.811491 
L 226.2129 237.957915 
L 226.369843 237.782206 
L 226.422157 237.913988 
L 226.474471 237.870061 
L 226.526785 237.855418 
L 226.683728 237.972558 
L 226.736042 237.92863 
L 226.84067 237.665067 
L 226.945298 237.855418 
L 227.102241 237.416145 
L 227.311497 237.708994 
L 227.46844 237.460073 
L 227.625382 237.621139 
L 227.834639 238.04577 
L 227.886953 238.016485 
L 227.991581 238.104339 
L 228.043895 238.353261 
L 228.096209 238.236121 
L 228.200838 238.353261 
L 228.514722 238.836461 
L 228.619351 238.792533 
L 228.671665 238.719321 
L 228.723979 238.763248 
L 228.828607 238.704679 
L 229.090178 238.675394 
L 229.142492 238.748606 
L 229.194806 238.704679 
L 229.404063 238.265406 
L 229.508691 238.514327 
L 229.665633 238.294691 
L 230.188775 238.52897 
L 230.345717 238.719321 
L 230.502659 238.719321 
L 230.711916 239.056097 
L 230.868858 239.231806 
L 231.078115 239.4368 
L 231.235057 239.290376 
L 231.392 239.290376 
L 231.548942 239.231806 
L 231.65357 239.056097 
L 231.705885 239.085382 
L 231.915141 238.997527 
L 232.124398 238.777891 
L 232.28134 238.865745 
L 232.542911 238.821818 
L 232.595225 238.733964 
L 232.647539 238.836461 
L 232.804481 238.865745 
L 233.013738 238.397188 
L 233.222994 238.338618 
L 233.275309 238.397188 
L 233.327623 238.294691 
L 233.432251 238.309333 
L 233.641508 238.499685 
L 233.79845 238.382545 
L 234.007706 238.675394 
L 234.112335 238.52897 
L 234.164649 238.587539 
L 234.269277 238.851103 
L 234.373905 238.777891 
L 234.583162 238.572897 
L 234.68779 238.631467 
L 234.949361 237.386861 
L 235.001675 237.401503 
L 235.053989 237.269721 
L 235.106303 237.299006 
L 235.210932 237.342933 
L 235.420188 236.698667 
L 235.681759 236.420461 
L 235.734073 236.405818 
L 235.786387 236.522958 
L 235.838701 236.464388 
L 235.891015 236.200824 
L 235.943329 236.303321 
L 235.995644 236.566885 
L 236.100272 236.5376 
L 236.257214 235.746909 
L 236.309528 235.966545 
L 236.466471 236.288679 
L 236.518785 236.200824 
L 236.571099 236.186182 
L 236.780356 235.820121 
L 237.146555 236.376533 
L 237.251183 236.522958 
L 237.303497 236.405818 
L 237.512754 235.761552 
L 237.565068 235.893333 
L 237.617382 235.688339 
L 237.774324 236.039758 
L 237.931267 235.878691 
L 237.983581 235.790836 
L 238.245151 232.071661 
L 238.297466 232.100945 
L 238.402094 231.368824 
L 238.559036 231.002764 
L 238.663664 231.075976 
L 238.977549 229.465309 
L 239.029863 229.523879 
L 239.343748 233.09663 
L 239.500691 234.253382 
L 239.605319 234.1216 
L 239.709947 234.019103 
L 239.919204 235.073358 
L 239.971518 234.824436 
L 240.076146 234.765867 
L 240.12846 234.956218 
L 240.180774 234.809794 
L 240.285403 234.560873 
L 240.337717 234.648727 
L 240.390031 234.531588 
L 240.442345 234.619442 
L 240.599287 234.66337 
L 240.703916 234.721939 
L 240.860858 234.970861 
L 240.965486 234.721939 
L 241.017801 234.912291 
L 241.070115 234.883006 
L 241.174743 234.883006 
L 241.331685 235.02943 
L 241.436314 235.073358 
L 241.488628 234.926933 
L 241.540942 234.985503 
L 241.593256 235.088 
L 241.64557 234.970861 
L 241.697884 235.000145 
L 241.907141 234.077673 
L 242.011769 234.443733 
L 242.064083 234.414448 
L 242.221026 234.385164 
L 242.377968 234.355879 
L 242.482596 234.1216 
L 242.53491 234.18017 
L 242.587225 234.06303 
L 242.639539 234.150885 
L 242.901109 234.765867 
L 243.005738 234.795152 
L 243.110366 234.619442 
L 243.16268 234.751224 
L 243.214994 234.853721 
L 243.267308 234.809794 
L 243.371937 234.912291 
L 243.476565 234.853721 
L 243.738136 234.634085 
L 243.895078 234.897648 
L 244.104335 234.941576 
L 244.365905 235.497988 
L 244.418219 235.483345 
L 244.67979 235.966545 
L 244.784418 236.098327 
L 244.836732 236.0544 
L 245.150617 236.069042 
L 245.30756 235.776194 
L 245.673759 234.560873 
L 245.778387 234.6048 
L 245.883015 234.458376 
L 245.987643 234.692655 
L 246.039957 234.634085 
L 246.144586 234.531588 
L 246.353842 234.868364 
L 246.458471 234.824436 
L 246.510785 234.648727 
L 246.563099 234.853721 
L 246.720041 235.5712 
L 246.772355 235.483345 
L 246.876984 235.483345 
L 246.929298 235.5712 
L 246.981612 235.497988 
L 247.243183 235.454061 
L 247.661696 236.083685 
L 247.71401 235.966545 
L 247.870952 235.878691 
L 247.923266 236.010473 
L 247.97558 235.981188 
L 248.080209 235.834764 
L 248.237151 236.0544 
L 248.341779 236.010473 
L 248.551036 236.288679 
L 248.812607 236.771879 
L 249.126491 237.694352 
L 249.49269 238.148267 
L 249.597319 238.221479 
L 249.649633 238.294691 
L 249.701947 238.192194 
L 250.015832 237.665067 
L 250.538973 236.845091 
L 250.643601 236.947588 
L 250.800544 236.874376 
L 251.0098 236.47903 
L 251.166743 236.508315 
L 251.219057 236.317964 
L 251.271371 236.47903 
L 251.428313 236.698667 
L 251.742198 236.098327 
L 252.160711 236.640097 
L 252.213025 236.640097 
L 252.369968 236.815806 
L 252.474596 236.742594 
L 252.579224 237.006158 
L 252.736167 236.874376 
L 252.945423 236.376533 
L 253.206994 235.5712 
L 253.259308 235.5712 
L 253.573193 234.648727 
L 253.677821 234.839079 
L 253.939392 234.311952 
L 253.991706 234.297309 
L 254.096334 234.458376 
L 254.462533 233.565188 
L 254.724104 232.701285 
L 254.776418 232.759855 
L 254.985675 232.598788 
L 255.037989 232.73057 
L 255.090303 232.657358 
L 255.404188 231.881309 
L 255.456502 231.969164 
L 255.508816 232.144873 
L 255.56113 232.042376 
L 255.665758 231.603103 
L 255.718072 231.690958 
L 255.875015 231.588461 
L 256.345842 230.285285 
L 256.502784 230.490279 
L 256.607413 230.504921 
L 256.764355 230.651345 
L 256.921298 230.68063 
L 257.130554 230.841697 
L 258.124523 226.053624 
L 258.176837 225.9072 
L 258.229151 226.024339 
L 258.438407 226.771103 
L 258.543036 226.961455 
L 258.699978 227.89857 
L 258.752292 227.971782 
L 258.961549 228.86497 
L 259.066177 228.659976 
L 259.170805 229.216388 
L 259.275434 228.659976 
L 259.327748 228.674618 
L 259.48469 228.762473 
L 259.537004 228.74783 
L 259.746261 228.015709 
L 259.850889 227.957139 
L 260.217088 226.683248 
L 260.321716 227.122521 
L 260.37403 226.976097 
L 260.478659 227.093236 
L 260.530973 227.005382 
L 260.583287 226.888242 
L 260.635601 227.020024 
L 260.949486 227.430012 
L 261.367999 228.557479 
L 261.420313 228.645333 
L 261.577256 228.454982 
L 261.681884 228.659976 
L 261.786512 228.469624 
L 261.838826 228.528194 
L 261.89114 228.557479 
L 262.205025 227.664291 
L 262.466596 227.239661 
L 262.571224 227.034667 
L 262.623538 227.137164 
L 262.675852 227.049309 
L 262.728167 227.020024 
L 262.780481 227.166448 
L 262.832795 227.049309 
L 263.042051 226.33183 
L 263.094365 226.44897 
L 263.14668 226.44897 
L 263.303622 226.097552 
L 263.355936 226.126836 
L 263.565193 226.756461 
L 263.722135 226.361115 
L 264.140648 227.503224 
L 264.873046 230.051006 
L 264.92536 230.065648 
L 265.134617 231.28097 
L 265.186931 230.988121 
L 265.343873 230.343855 
L 265.396187 230.31457 
L 265.55313 229.538521 
L 265.657758 229.670303 
L 265.762386 229.494594 
L 265.8147 229.553164 
L 266.023957 229.538521 
L 266.180899 229.318885 
L 266.494784 230.651345 
L 266.651727 230.870982 
L 266.704041 230.695273 
L 266.756355 230.724558 
L 267.017926 231.207758 
L 267.07024 231.16383 
L 267.279496 230.695273 
L 267.384125 230.783127 
L 267.488753 230.695273 
L 268.011894 232.349867 
L 268.116522 232.262012 
L 268.325779 233.301624 
L 268.535035 233.945891 
L 268.691978 234.370521 
L 268.744292 234.341236 
L 269.110491 233.887321 
L 269.162805 233.931248 
L 269.529004 232.935564 
L 269.685946 232.803782 
L 269.895203 232.232727 
L 270.10446 232.452364 
L 270.313716 232.042376 
L 270.470658 232.452364 
L 270.732229 231.910594 
L 270.784543 232.174158 
L 270.836857 232.086303 
L 271.150742 231.895952 
L 271.25537 231.852024 
L 271.412313 231.500606 
L 271.569255 231.588461 
L 271.726198 231.734885 
L 271.778512 231.866667 
L 271.830826 231.749527 
L 271.987768 231.925236 
L 272.144711 231.632388 
L 272.197025 231.632388 
L 272.353967 232.232727 
L 272.51091 232.042376 
L 272.615538 232.232727 
L 273.086365 231.105261 
L 273.923391 224.574739 
L 274.080334 223.593697 
L 274.132648 223.622982 
L 274.184962 223.754764 
L 274.708103 219.332752 
L 274.812732 219.274182 
L 274.969674 219.772024 
L 275.074302 219.20097 
L 275.231245 218.351709 
L 275.283559 218.424921 
L 275.388187 219.435248 
L 275.440501 219.318109 
L 275.54513 219.830594 
L 275.8067 221.778036 
L 275.963643 222.0416 
L 276.015957 221.98303 
L 276.068271 221.865891 
L 276.382156 223.535127 
L 276.539098 223.081212 
L 276.748355 223.344776 
L 276.852983 222.744436 
L 277.114554 221.646255 
L 277.533067 220.709139 
L 277.637695 220.767709 
L 277.794637 221.0752 
L 277.95158 221.353406 
L 278.003894 221.177697 
L 278.265465 222.026958 
L 278.422407 221.368048 
L 278.527035 221.411976 
L 278.579349 221.543758 
L 278.631663 221.514473 
L 278.683978 221.485188 
L 278.84092 220.943418 
L 278.997862 221.397333 
L 280.201088 218.014933 
L 280.253402 217.956364 
L 280.724229 218.849552 
L 280.776543 218.820267 
L 280.828857 218.585988 
L 281.142742 219.918448 
L 281.195056 219.933091 
L 281.299684 220.430933 
L 281.351998 220.343079 
L 281.718197 221.163055 
L 281.770512 221.13377 
L 281.822826 221.236267 
L 281.87514 221.13377 
L 281.979768 221.221624 
L 282.189025 220.767709 
L 282.241339 220.855564 
L 282.345967 220.138085 
L 282.398281 220.240582 
L 282.502909 220.577358 
L 282.555224 220.562715 
L 282.607538 220.518788 
L 282.659852 220.621285 
L 282.712166 220.562715 
L 282.76448 220.53343 
L 282.921423 221.338764 
L 282.973737 221.236267 
L 283.026051 220.914133 
L 283.078365 221.045915 
L 283.130679 221.089842 
L 283.339936 221.61697 
L 283.39225 221.792679 
L 283.444564 221.631612 
L 283.549192 221.265552 
L 283.65382 221.98303 
L 283.706135 221.968388 
L 284.176962 219.815952 
L 284.386218 220.1088 
L 284.490847 220.430933 
L 284.543161 220.884848 
L 284.595475 220.723782 
L 284.700103 220.53343 
L 285.380187 223.871903 
L 285.432501 223.813333 
L 285.484815 223.725479 
L 285.694072 221.939103 
L 285.7987 221.865891 
L 285.903328 222.246594 
L 285.955642 221.997673 
L 286.007956 222.10017 
L 286.269527 222.905503 
L 286.321841 223.051927 
L 286.374155 222.890861 
L 286.42647 222.934788 
L 287.001925 228.206061 
L 287.054239 228.147491 
L 287.420438 229.23103 
L 287.472752 229.582448 
L 287.525066 229.069964 
L 287.577381 229.187103 
L 287.786637 229.318885 
L 287.891265 229.172461 
L 287.995894 229.2896 
L 288.048208 229.245673 
L 288.100522 229.436024 
L 288.152836 229.245673 
L 288.20515 229.274958 
L 288.362093 228.601406 
L 288.675977 227.342158 
L 289.042176 224.896873 
L 289.251433 216.711758 
L 289.460689 211.557624 
L 289.669946 210.093382 
L 289.774574 210.151952 
L 290.036145 208.424145 
L 290.140773 210.093382 
L 290.454658 219.20097 
L 290.663914 217.370667 
L 290.768543 217.063176 
L 290.925485 216.345697 
L 291.500941 213.636848 
L 291.657883 216.374982 
L 291.710197 216.30177 
L 291.762511 216.316412 
L 291.971768 215.145018 
L 292.024082 215.393939 
L 292.076396 215.2768 
L 292.599537 211.8944 
L 292.861108 210.313018 
L 292.913422 210.327661 
L 293.070365 210.98657 
L 293.122679 211.089067 
L 293.174993 211.045139 
L 293.279621 210.4448 
L 293.331935 210.825503 
L 293.38425 210.518012 
L 293.436564 210.371588 
L 293.541192 211.220848 
L 293.64582 210.971927 
L 293.698134 210.98657 
L 293.750448 211.499055 
L 293.802763 211.455127 
L 294.221276 207.428461 
L 294.27359 207.677382 
L 294.325904 207.516315 
L 294.482846 206.535273 
L 294.53516 206.447418 
L 294.587475 206.5792 
L 294.639789 207.12097 
L 294.692103 206.872048 
L 294.744417 206.740267 
L 294.849045 206.110642 
L 294.953674 206.491345 
L 295.110616 205.847079 
L 295.319872 206.901333 
L 295.424501 207.194182 
L 295.947642 202.479321 
L 296.156899 199.75583 
L 296.366155 196.139152 
L 296.418469 196.065939 
L 296.575412 185.289115 
L 296.732354 183.283103 
L 296.993925 180.296048 
L 297.046239 180.266764 
L 297.203181 182.126352 
L 297.255495 182.799903 
L 297.30781 182.550982 
L 297.360124 182.668121 
L 297.464752 181.979927 
L 297.621694 190.487176 
L 297.726323 189.916121 
L 297.778637 189.989333 
L 297.987893 190.501818 
L 298.040208 190.370036 
L 298.301778 188.437236 
L 298.354092 188.481164 
L 298.772605 185.420897 
L 298.877234 185.655176 
L 299.034176 186.680145 
L 299.138804 186.123733 
L 299.348061 187.265842 
L 299.400375 187.236558 
L 299.452689 186.958352 
L 299.505003 187.280485 
L 299.609632 188.627588 
L 299.661946 188.437236 
L 300.028145 183.678448 
L 300.132773 163.99903 
L 300.342029 129.413624 
L 300.812857 105.209697 
L 300.865171 105.282909 
L 301.022113 102.617988 
L 301.074427 102.852267 
L 301.179056 120.964945 
L 301.388312 149.415176 
L 301.806825 165.741479 
L 301.963768 167.835345 
L 302.016082 167.088582 
L 302.068396 167.44 
L 302.12071 167.410715 
L 302.225338 168.523539 
L 302.382281 169.636364 
L 302.434595 169.636364 
L 302.486909 169.753503 
L 302.643851 171.774158 
L 302.800794 173.384824 
L 302.905422 174.483006 
L 303.376249 183.605236 
L 303.533192 185.245188 
L 303.690134 187.060848 
L 303.794762 188.612945 
L 303.847076 187.866182 
L 303.899391 187.544048 
L 304.160961 189.828267 
L 304.213275 189.623273 
L 304.26559 189.681842 
L 304.317904 189.798982 
L 304.422532 187.661188 
L 304.474846 187.763685 
L 304.52716 187.661188 
L 304.631788 185.933382 
L 304.684103 186.328727 
L 304.893359 188.671515 
L 305.207244 190.428606 
L 305.259558 191.17537 
L 305.364186 189.872194 
L 305.521129 192.683539 
L 305.573443 193.005673 
L 305.730385 194.938473 
L 305.782699 194.865261 
L 305.887328 196.636994 
L 306.096584 200.2976 
L 306.148898 200.634376 
L 306.776668 215.291442 
L 306.828982 215.203588 
L 307.090553 216.272485 
L 307.142867 215.994279 
L 307.456752 211.367273 
L 307.979893 201.966836 
L 308.45072 195.670594 
L 308.555349 195.231321 
L 308.607663 195.4656 
L 308.764605 193.518158 
L 308.816919 192.551758 
L 309.026176 185.508752 
L 309.183118 184.395927 
L 309.340061 185.889455 
L 309.392375 185.538036 
L 309.653945 188.041891 
L 309.70626 187.368339 
L 309.758574 187.7344 
L 309.863202 188.715442 
L 310.020144 194.9824 
L 310.229401 191.878206 
L 310.281715 191.570715 
L 310.386343 192.493188 
L 310.490972 191.336436 
L 310.543286 191.365721 
L 310.647914 190.941091 
L 310.752542 191.54143 
L 310.909485 189.24257 
L 311.066427 171.159176 
L 311.380312 163.51583 
L 311.48494 161.846594 
L 311.746511 153.324703 
L 311.851139 152.4608 
L 311.955767 148.478061 
L 312.11271 163.398691 
L 312.217338 166.883588 
L 312.269652 165.580412 
L 312.37428 164.819006 
L 312.426595 164.892218 
L 312.478909 165.097212 
L 312.531223 166.034327 
L 312.583537 166.019685 
L 312.740479 164.013673 
L 313.211307 160.426279 
L 313.315935 161.890521 
L 313.472877 158.7424 
L 313.525191 158.771685 
L 313.577506 158.610618 
L 313.682134 161.129115 
L 313.734448 159.957721 
L 313.943704 162.18337 
L 314.048333 166.400388 
L 314.100647 166.107539 
L 314.152961 166.195394 
L 314.362218 167.542497 
L 314.414532 166.839661 
L 314.623788 160.235927 
L 314.728417 161.070545 
L 314.780731 160.938764 
L 315.094615 152.050812 
L 315.199244 147.277382 
L 315.4085 140.907927 
L 315.513129 143.660703 
L 315.774699 137.818376 
L 315.827013 137.891588 
L 316.088584 132.722812 
L 316.193212 133.630642 
L 316.350155 134.465261 
L 316.507097 133.19137 
L 316.611725 135.592727 
L 316.66404 134.977745 
L 316.768668 134.333479 
L 316.873296 133.264582 
L 316.92561 133.659927 
L 316.977924 133.162085 
L 317.187181 125.284461 
L 317.239495 125.445527 
L 317.291809 126.236218 
L 317.501066 120.02783 
L 317.658008 120.452461 
L 317.710322 120.042473 
L 317.81495 117.538618 
L 317.867265 118.007176 
L 317.919579 117.875394 
L 318.338092 127.510109 
L 318.44272 132.883879 
L 318.495034 130.965721 
L 318.599662 129.633261 
L 318.651977 130.087176 
L 318.808919 132.620315 
L 318.965861 131.346424 
L 319.07049 132.019976 
L 319.175118 134.128485 
L 319.227432 133.249939 
L 319.279746 133.879564 
L 319.436689 136.544485 
L 319.907516 147.936291 
L 319.95983 147.072388 
L 320.012144 148.009503 
L 320.273715 151.757964 
L 320.430657 146.413479 
L 320.482971 146.647758 
L 320.639914 148.756267 
L 320.692228 146.969891 
L 320.744542 146.999176 
L 320.901484 148.287709 
L 321.006113 150.630497 
L 321.058427 149.283394 
L 321.163055 148.683055 
L 321.267683 151.172267 
L 321.47694 158.2592 
L 321.529254 158.156703 
L 321.581568 158.332412 
L 321.686196 160.953406 
L 321.738511 160.924121 
L 321.790825 159.76737 
L 321.843139 160.309139 
L 321.947767 161.626958 
L 322.10471 164.394376 
L 322.209338 159.503806 
L 322.261652 159.533091 
L 322.36628 160.382352 
L 322.470908 162.022303 
L 322.523223 160.235927 
L 322.575537 160.440921 
L 322.680165 160.748412 
L 322.732479 161.260897 
L 322.837107 163.676897 
L 322.889422 162.754424 
L 322.99405 162.842279 
L 323.046364 163.061915 
L 323.150992 166.678594 
L 323.307935 172.945552 
L 323.517191 177.030788 
L 323.726448 180.369261 
L 323.831076 182.507055 
L 323.935704 185.098764 
L 323.988018 184.513067 
L 324.197275 186.416582 
L 324.301903 188.539733 
L 324.77273 180.281406 
L 324.825045 180.42783 
L 324.929673 181.262448 
L 325.034301 182.814545 
L 325.086615 181.892073 
L 325.138929 182.053139 
L 325.295872 183.414885 
L 325.452814 180.749964 
L 325.505128 180.676752 
L 325.766699 189.169358 
L 325.871327 188.979006 
L 325.923641 189.198642 
L 325.975955 188.861867 
L 326.185212 191.614642 
L 326.237526 190.6336 
L 326.342154 187.719758 
L 326.394469 189.388994 
L 326.499097 190.121115 
L 326.551411 189.901479 
L 326.603725 189.784339 
L 326.656039 189.945406 
L 326.865296 188.569018 
L 327.022238 182.287418 
L 327.179181 181.423515 
L 327.283809 178.465745 
L 327.336123 178.524315 
L 327.54538 182.829188 
L 327.597694 182.272776 
L 327.650008 182.287418 
L 327.911578 184.747345 
L 327.963893 188.261527 
L 328.016207 187.426909 
L 328.068521 187.573333 
L 328.173149 186.987636 
L 328.330092 188.861867 
L 328.43472 188.364024 
L 328.487034 188.290812 
L 328.539348 188.510448 
L 328.591662 188.144388 
L 328.643976 188.803297 
L 328.696291 188.466521 
L 328.853233 186.636218 
L 328.905547 186.621576 
L 329.010175 187.983321 
L 329.062489 187.67583 
L 329.219432 184.937697 
L 329.271746 184.996267 
L 329.376374 185.948024 
L 329.428688 185.904097 
L 329.585631 183.619879 
L 329.637945 183.561309 
L 329.690259 183.678448 
L 329.742573 184.29343 
L 329.794887 183.737018 
L 330.004144 179.505358 
L 330.056458 179.490715 
L 330.108772 180.310691 
L 330.161086 179.622497 
L 330.422657 175.141915 
L 330.527285 175.742255 
L 330.736542 171.876655 
L 330.788856 171.408097 
L 330.84117 172.081648 
L 330.893484 171.759515 
L 331.102741 167.454642 
L 331.155055 166.605382 
L 331.207369 167.220364 
L 331.259683 166.868945 
L 331.416626 164.0576 
L 331.46894 163.881891 
L 331.521254 163.222982 
L 331.573568 163.618327 
L 331.625882 164.072242 
L 331.835139 157.556364 
L 331.887453 157.35137 
L 331.939767 158.215273 
L 331.992081 157.819927 
L 332.044395 156.150691 
L 332.096709 156.692461 
L 332.201338 157.146376 
L 332.35828 158.859539 
L 332.462908 156.721745 
L 332.515222 156.794958 
L 332.567536 156.956024 
L 332.672165 156.004267 
L 332.724479 157.893139 
L 332.776793 157.571006 
L 332.881421 157.058521 
L 332.98605 153.661479 
L 333.090678 155.023224 
L 333.24762 150.762279 
L 333.299934 149.98623 
L 333.352249 150.176582 
L 333.404563 151.099055 
L 333.456877 150.879418 
L 333.613819 148.390206 
L 333.666133 148.624485 
L 333.718447 148.873406 
L 333.823076 150.205867 
L 333.927704 148.068073 
L 334.032332 150.235152 
L 334.084646 149.98623 
L 334.189275 148.990545 
L 334.398531 141.010424 
L 334.450845 140.761503 
L 334.503159 141.88897 
L 334.555474 141.317915 
L 334.817044 136.119855 
L 334.921673 136.705552 
L 335.078615 134.069915 
L 335.130929 134.52383 
L 335.3925 144.18783 
L 335.497128 144.114618 
L 335.549442 144.012121 
L 335.65407 144.905309 
L 335.811013 142.079321 
L 335.863327 142.108606 
L 335.967955 143.382497 
L 336.020269 143.148218 
L 336.334154 134.52383 
L 336.543411 123.04417 
L 336.648039 121.243152 
L 336.700353 121.755636 
L 336.752667 121.418861 
L 336.961924 119.163927 
L 337.014238 119.193212 
L 337.118866 121.755636 
L 337.17118 121.316364 
L 337.223494 121.257794 
L 337.380437 125.753018 
L 337.485065 133.220655 
L 337.537379 130.863224 
L 337.589693 130.29217 
L 337.851264 136.193067 
L 337.903578 134.904533 
L 337.955892 135.563442 
L 338.060521 134.845964 
L 338.269777 136.57377 
L 338.374405 136.383418 
L 338.479034 137.876945 
L 338.583662 141.976824 
L 338.68829 140.410085 
L 338.897547 142.840727 
L 338.949861 142.679661 
L 339.002175 141.083636 
L 339.054489 141.098279 
L 339.211432 141.640048 
L 339.263746 141.420412 
L 339.368374 138.096582 
L 339.525316 134.655612 
L 339.682259 138.9312 
L 339.786887 138.711564 
L 339.839201 138.623709 
L 339.891515 139.106909 
L 340.2054 147.1456 
L 340.257714 147.775224 
L 340.571599 158.903467 
L 340.623913 158.947394 
L 340.728542 160.484848 
L 340.780856 160.13343 
L 340.885484 159.020606 
L 341.042426 159.825939 
L 341.147055 160.938764 
L 341.251683 160.118788 
L 341.303997 160.206642 
L 341.408625 160.924121 
L 341.617882 163.369406 
L 341.774824 166.224679 
L 341.879452 168.801745 
L 341.984081 167.44 
L 342.141023 170.251345 
L 342.245651 172.403782 
L 342.297966 171.803442 
L 342.454908 173.604461 
L 342.61185 176.108315 
L 342.768793 173.824097 
L 343.187306 180.134982 
L 343.291934 182.345988 
L 343.344248 183.707733 
L 343.396562 183.429527 
L 343.605819 181.760291 
L 344.338217 191.146085 
L 344.809044 202.376824 
L 344.861358 201.878982 
L 344.965986 202.17183 
L 345.018301 202.025406 
L 345.070615 201.864339 
L 345.175243 202.7136 
L 345.332185 199.433697 
L 345.959955 182.038497 
L 346.116897 181.116024 
L 346.221526 181.116024 
L 346.378468 179.739636 
L 346.953924 191.1168 
L 347.006238 190.955733 
L 347.215494 186.943709 
L 347.424751 188.188315 
L 347.477065 187.997964 
L 347.529379 188.041891 
L 347.686321 188.290812 
L 347.79095 187.807612 
L 348.05252 190.370036 
L 348.104835 192.009988 
L 348.157149 190.780024 
L 348.209463 190.809309 
L 348.471033 192.449261 
L 348.68029 189.930764 
L 348.784918 191.453576 
L 348.837232 191.248582 
L 349.046489 187.19263 
L 349.098803 187.119418 
L 349.203431 187.412267 
L 349.360374 183.034182 
L 349.778887 172.886982 
L 350.406656 154.481455 
L 350.563599 152.636509 
L 350.615913 152.695079 
L 350.772855 150.981915 
L 350.82517 151.260121 
L 350.982112 153.9104 
L 351.034426 154.906085 
L 351.139054 153.192921 
L 351.191368 153.558982 
L 351.295997 154.378958 
L 351.348311 154.115394 
L 351.505253 152.88543 
L 351.609882 151.084412 
L 351.662196 151.099055 
L 351.71451 152.153309 
L 351.766824 152.094739 
L 351.923766 149.385891 
L 352.028395 149.107685 
L 352.080709 149.605527 
L 352.133023 149.532315 
L 352.342279 147.438448 
L 352.499222 151.289406 
L 352.551536 149.883733 
L 352.60385 150.10337 
L 352.865421 151.845818 
L 353.126991 149.151612 
L 353.179306 149.50303 
L 353.283934 146.208485 
L 353.49319 139.663321 
L 353.545505 140.219733 
L 353.597819 139.795103 
L 353.754761 136.617697 
L 353.807075 136.032 
L 353.859389 136.295564 
L 353.911703 136.45663 
L 353.964018 136.163782 
L 354.173274 132.429964 
L 354.225588 132.942448 
L 354.434845 136.441988 
L 354.487159 136.119855 
L 354.539473 136.207709 
L 354.591787 136.661624 
L 354.696416 139.458327 
L 354.74873 138.316218 
L 354.801044 137.54017 
L 354.853358 137.979442 
L 354.905672 137.90623 
L 355.0103 135.783079 
L 355.114929 126.836558 
L 355.951955 47.240339 
L 356.056583 44.897552 
L 356.108897 45.351467 
L 356.893609 74.079903 
L 356.998237 73.596703 
L 357.521379 81.547539 
L 357.626007 88.429479 
L 357.678321 88.019491 
L 357.782949 86.233115 
L 357.835264 86.569891 
L 357.939892 88.693042 
L 357.992206 88.121988 
L 358.04452 85.954909 
L 358.096834 86.291685 
L 358.201463 87.477721 
L 358.253777 88.341624 
L 358.306091 88.121988 
L 358.358405 87.785212 
L 358.515347 81.093624 
L 358.567661 81.181479 
L 358.93386 89.015176 
L 359.247745 98.635248 
L 359.300059 99.455224 
L 359.613944 113.248388 
L 359.718572 114.258715 
L 359.823201 115.532606 
L 359.927829 114.214788 
L 360.137086 117.6704 
L 360.1894 117.348267 
L 360.241714 116.103661 
L 360.294028 116.586861 
L 360.555599 122.253479 
L 360.660227 119.6032 
L 360.712541 120.320679 
L 361.549567 143.133576 
L 361.758824 150.732994 
L 361.811138 150.996558 
L 362.020394 156.575321 
L 362.072709 155.711418 
L 362.125023 154.671806 
L 362.177337 154.715733 
L 362.334279 157.849212 
L 362.438907 156.589964 
L 362.59585 155.945697 
L 363.275934 169.021382 
L 363.380562 172.33057 
L 363.589818 178.143612 
L 364.217588 188.949721 
L 364.269902 188.627588 
L 364.426845 185.450182 
L 364.949986 163.369406 
L 365.211557 154.569309 
L 365.316185 151.962958 
L 365.420813 149.312679 
L 365.473127 149.722667 
L 365.682384 154.569309 
L 365.734698 153.661479 
L 365.787012 153.763976 
L 366.048583 163.955103 
L 366.205525 162.608 
L 366.257839 162.651927 
L 366.362468 164.086885 
L 366.414782 163.603685 
L 366.571724 161.861236 
L 366.676352 162.300509 
L 366.780981 164.496873 
L 366.937923 162.564073 
L 367.094865 163.5744 
L 367.14718 163.017988 
L 367.304122 159.489164 
L 367.40875 158.434909 
L 367.513379 159.782012 
L 367.670321 156.428897 
L 367.722635 156.253188 
L 367.879577 157.219588 
L 368.088834 151.860461 
L 368.141148 151.113697 
L 368.193462 152.665794 
L 368.245776 152.577939 
L 368.350405 149.927661 
L 368.402719 150.279079 
L 368.455033 150.220509 
L 368.559661 152.768291 
L 368.873546 143.82177 
L 368.92586 143.865697 
L 369.030488 139.575467 
L 369.135117 140.087952 
L 369.239745 139.47297 
L 369.292059 141.244703 
L 369.344373 140.849358 
L 369.605944 136.061285 
L 369.710572 139.385115 
L 369.919829 134.743467 
L 369.972143 134.758109 
L 370.024457 136.280921 
L 370.076771 135.60737 
L 370.233714 131.961406 
L 370.44297 129.560048 
L 370.652227 120.950303 
L 370.861483 112.501624 
L 371.07074 106.366448 
L 371.123054 106.454303 
L 371.436939 89.410521 
L 371.489253 90.245139 
L 371.541567 89.10303 
L 371.698509 82.631079 
L 371.803138 80.727564 
L 371.855452 82.294303 
L 371.907766 80.815418 
L 372.169337 67.739733 
L 372.221651 67.871515 
L 372.326279 58.500364 
L 372.535535 46.859636 
L 372.58785 48.309236 
L 372.640164 47.767467 
L 372.744792 44.443636 
L 372.797106 44.838982 
L 372.901734 46.874279 
L 373.006363 51.354861 
L 373.058677 48.704582 
L 373.110991 50.007758 
L 373.320248 59.378909 
L 373.581818 74.021333 
L 373.581818 74.021333 
" style="fill:none;stroke:#4c72b0;stroke-linecap:round;stroke-width:0.5;"/>
   </g>
   <g id="patch_3">
    <path d="M 54 252 
L 54 34.56 
" style="fill:none;stroke:#ffffff;stroke-linecap:square;stroke-linejoin:miter;stroke-width:1.25;"/>
   </g>
   <g id="patch_4">
    <path d="M 388.8 252 
L 388.8 34.56 
" style="fill:none;stroke:#ffffff;stroke-linecap:square;stroke-linejoin:miter;stroke-width:1.25;"/>
   </g>
   <g id="patch_5">
    <path d="M 54 252 
L 388.8 252 
" style="fill:none;stroke:#ffffff;stroke-linecap:square;stroke-linejoin:miter;stroke-width:1.25;"/>
   </g>
   <g id="patch_6">
    <path d="M 54 34.56 
L 388.8 34.56 
" style="fill:none;stroke:#ffffff;stroke-linecap:square;stroke-linejoin:miter;stroke-width:1.25;"/>
   </g>
   <g id="patch_7">
    <path d="M 228.328951 149.290478 
Q 253.429607 179.774988 278.530262 210.259499 
L 281.618194 207.716926 
Q 283.11698 214.256816 284.615767 220.796705 
Q 278.485083 218.070676 272.3544 215.344646 
L 275.442331 212.802073 
Q 250.341675 182.317562 225.24102 151.833051 
L 228.328951 149.290478 
z
" style="stroke:#ffffff;stroke-linecap:round;"/>
   </g>
   <g id="text_16">
    <!-- Oscillations -->
    <defs>
     <path d="M 39.40625 66.21875 
Q 28.65625 66.21875 22.328125 58.203125 
Q 16.015625 50.203125 16.015625 36.375 
Q 16.015625 22.609375 22.328125 14.59375 
Q 28.65625 6.59375 39.40625 6.59375 
Q 50.140625 6.59375 56.421875 14.59375 
Q 62.703125 22.609375 62.703125 36.375 
Q 62.703125 50.203125 56.421875 58.203125 
Q 50.140625 66.21875 39.40625 66.21875 
z
M 39.40625 74.21875 
Q 54.734375 74.21875 63.90625 63.9375 
Q 73.09375 53.65625 73.09375 36.375 
Q 73.09375 19.140625 63.90625 8.859375 
Q 54.734375 -1.421875 39.40625 -1.421875 
Q 24.03125 -1.421875 14.8125 8.828125 
Q 5.609375 19.09375 5.609375 36.375 
Q 5.609375 53.65625 14.8125 63.9375 
Q 24.03125 74.21875 39.40625 74.21875 
z
" id="DejaVuSans-79"/>
     <path d="M 44.28125 53.078125 
L 44.28125 44.578125 
Q 40.484375 46.53125 36.375 47.5 
Q 32.28125 48.484375 27.875 48.484375 
Q 21.1875 48.484375 17.84375 46.4375 
Q 14.5 44.390625 14.5 40.28125 
Q 14.5 37.15625 16.890625 35.375 
Q 19.28125 33.59375 26.515625 31.984375 
L 29.59375 31.296875 
Q 39.15625 29.25 43.1875 25.515625 
Q 47.21875 21.78125 47.21875 15.09375 
Q 47.21875 7.46875 41.1875 3.015625 
Q 35.15625 -1.421875 24.609375 -1.421875 
Q 20.21875 -1.421875 15.453125 -0.5625 
Q 10.6875 0.296875 5.421875 2 
L 5.421875 11.28125 
Q 10.40625 8.6875 15.234375 7.390625 
Q 20.0625 6.109375 24.8125 6.109375 
Q 31.15625 6.109375 34.5625 8.28125 
Q 37.984375 10.453125 37.984375 14.40625 
Q 37.984375 18.0625 35.515625 20.015625 
Q 33.0625 21.96875 24.703125 23.78125 
L 21.578125 24.515625 
Q 13.234375 26.265625 9.515625 29.90625 
Q 5.8125 33.546875 5.8125 39.890625 
Q 5.8125 47.609375 11.28125 51.796875 
Q 16.75 56 26.8125 56 
Q 31.78125 56 36.171875 55.265625 
Q 40.578125 54.546875 44.28125 53.078125 
z
" id="DejaVuSans-115"/>
     <path d="M 48.78125 52.59375 
L 48.78125 44.1875 
Q 44.96875 46.296875 41.140625 47.34375 
Q 37.3125 48.390625 33.40625 48.390625 
Q 24.65625 48.390625 19.8125 42.84375 
Q 14.984375 37.3125 14.984375 27.296875 
Q 14.984375 17.28125 19.8125 11.734375 
Q 24.65625 6.203125 33.40625 6.203125 
Q 37.3125 6.203125 41.140625 7.25 
Q 44.96875 8.296875 48.78125 10.40625 
L 48.78125 2.09375 
Q 45.015625 0.34375 40.984375 -0.53125 
Q 36.96875 -1.421875 32.421875 -1.421875 
Q 20.0625 -1.421875 12.78125 6.34375 
Q 5.515625 14.109375 5.515625 27.296875 
Q 5.515625 40.671875 12.859375 48.328125 
Q 20.21875 56 33.015625 56 
Q 37.15625 56 41.109375 55.140625 
Q 45.0625 54.296875 48.78125 52.59375 
z
" id="DejaVuSans-99"/>
     <path d="M 9.421875 54.6875 
L 18.40625 54.6875 
L 18.40625 0 
L 9.421875 0 
z
M 9.421875 75.984375 
L 18.40625 75.984375 
L 18.40625 64.59375 
L 9.421875 64.59375 
z
" id="DejaVuSans-105"/>
     <path d="M 9.421875 75.984375 
L 18.40625 75.984375 
L 18.40625 0 
L 9.421875 0 
z
" id="DejaVuSans-108"/>
     <path d="M 34.28125 27.484375 
Q 23.390625 27.484375 19.1875 25 
Q 14.984375 22.515625 14.984375 16.5 
Q 14.984375 11.71875 18.140625 8.90625 
Q 21.296875 6.109375 26.703125 6.109375 
Q 34.1875 6.109375 38.703125 11.40625 
Q 43.21875 16.703125 43.21875 25.484375 
L 43.21875 27.484375 
z
M 52.203125 31.203125 
L 52.203125 0 
L 43.21875 0 
L 43.21875 8.296875 
Q 40.140625 3.328125 35.546875 0.953125 
Q 30.953125 -1.421875 24.3125 -1.421875 
Q 15.921875 -1.421875 10.953125 3.296875 
Q 6 8.015625 6 15.921875 
Q 6 25.140625 12.171875 29.828125 
Q 18.359375 34.515625 30.609375 34.515625 
L 43.21875 34.515625 
L 43.21875 35.40625 
Q 43.21875 41.609375 39.140625 45 
Q 35.0625 48.390625 27.6875 48.390625 
Q 23 48.390625 18.546875 47.265625 
Q 14.109375 46.140625 10.015625 43.890625 
L 10.015625 52.203125 
Q 14.9375 54.109375 19.578125 55.046875 
Q 24.21875 56 28.609375 56 
Q 40.484375 56 46.34375 49.84375 
Q 52.203125 43.703125 52.203125 31.203125 
z
" id="DejaVuSans-97"/>
     <path d="M 18.3125 70.21875 
L 18.3125 54.6875 
L 36.8125 54.6875 
L 36.8125 47.703125 
L 18.3125 47.703125 
L 18.3125 18.015625 
Q 18.3125 11.328125 20.140625 9.421875 
Q 21.96875 7.515625 27.59375 7.515625 
L 36.8125 7.515625 
L 36.8125 0 
L 27.59375 0 
Q 17.1875 0 13.234375 3.875 
Q 9.28125 7.765625 9.28125 18.015625 
L 9.28125 47.703125 
L 2.6875 47.703125 
L 2.6875 54.6875 
L 9.28125 54.6875 
L 9.28125 70.21875 
z
" id="DejaVuSans-116"/>
     <path d="M 30.609375 48.390625 
Q 23.390625 48.390625 19.1875 42.75 
Q 14.984375 37.109375 14.984375 27.296875 
Q 14.984375 17.484375 19.15625 11.84375 
Q 23.34375 6.203125 30.609375 6.203125 
Q 37.796875 6.203125 41.984375 11.859375 
Q 46.1875 17.53125 46.1875 27.296875 
Q 46.1875 37.015625 41.984375 42.703125 
Q 37.796875 48.390625 30.609375 48.390625 
z
M 30.609375 56 
Q 42.328125 56 49.015625 48.375 
Q 55.71875 40.765625 55.71875 27.296875 
Q 55.71875 13.875 49.015625 6.21875 
Q 42.328125 -1.421875 30.609375 -1.421875 
Q 18.84375 -1.421875 12.171875 6.21875 
Q 5.515625 13.875 5.515625 27.296875 
Q 5.515625 40.765625 12.171875 48.375 
Q 18.84375 56 30.609375 56 
z
" id="DejaVuSans-111"/>
     <path d="M 54.890625 33.015625 
L 54.890625 0 
L 45.90625 0 
L 45.90625 32.71875 
Q 45.90625 40.484375 42.875 44.328125 
Q 39.84375 48.1875 33.796875 48.1875 
Q 26.515625 48.1875 22.3125 43.546875 
Q 18.109375 38.921875 18.109375 30.90625 
L 18.109375 0 
L 9.078125 0 
L 9.078125 54.6875 
L 18.109375 54.6875 
L 18.109375 46.1875 
Q 21.34375 51.125 25.703125 53.5625 
Q 30.078125 56 35.796875 56 
Q 45.21875 56 50.046875 50.171875 
Q 54.890625 44.34375 54.890625 33.015625 
z
" id="DejaVuSans-110"/>
    </defs>
    <g style="fill:#262626;" transform="translate(152.5125 141.526125)scale(0.12 -0.12)">
     <use xlink:href="#DejaVuSans-79"/>
     <use x="78.710938" xlink:href="#DejaVuSans-115"/>
     <use x="130.810547" xlink:href="#DejaVuSans-99"/>
     <use x="185.791016" xlink:href="#DejaVuSans-105"/>
     <use x="213.574219" xlink:href="#DejaVuSans-108"/>
     <use x="241.357422" xlink:href="#DejaVuSans-108"/>
     <use x="269.140625" xlink:href="#DejaVuSans-97"/>
     <use x="330.419922" xlink:href="#DejaVuSans-116"/>
     <use x="369.628906" xlink:href="#DejaVuSans-105"/>
     <use x="397.412109" xlink:href="#DejaVuSans-111"/>
     <use x="458.59375" xlink:href="#DejaVuSans-110"/>
     <use x="521.972656" xlink:href="#DejaVuSans-115"/>
    </g>
   </g>
   <g id="patch_8">
    <path d="M 227.756268 133.505243 
Q 271.228813 156.4812 314.701357 179.457156 
L 316.570435 175.920696 
Q 320.472262 181.3761 324.37409 186.831504 
Q 317.668646 186.68079 310.963202 186.530076 
L 312.83228 182.993616 
Q 269.359735 160.01766 225.88719 137.041703 
L 227.756268 133.505243 
z
" style="stroke:#ffffff;stroke-linecap:round;"/>
   </g>
   <g id="legend_1">
    <g id="patch_9">
     <path d="M 61.7 59.505938 
L 155.191406 59.505938 
Q 157.391406 59.505938 157.391406 57.305938 
L 157.391406 42.26 
Q 157.391406 40.06 155.191406 40.06 
L 61.7 40.06 
Q 59.5 40.06 59.5 42.26 
L 59.5 57.305938 
Q 59.5 59.505938 61.7 59.505938 
z
" style="fill:#eaeaf2;opacity:0.8;stroke:#cccccc;stroke-linejoin:miter;"/>
    </g>
    <g id="line2d_17">
     <path d="M 63.9 48.968281 
L 85.9 48.968281 
" style="fill:none;stroke:#4c72b0;stroke-linecap:round;stroke-width:0.5;"/>
    </g>
    <g id="line2d_18"/>
    <g id="text_17">
     <!-- New Users -->
     <defs>
      <path d="M 9.8125 72.90625 
L 23.09375 72.90625 
L 55.421875 11.921875 
L 55.421875 72.90625 
L 64.984375 72.90625 
L 64.984375 0 
L 51.703125 0 
L 19.390625 60.984375 
L 19.390625 0 
L 9.8125 0 
z
" id="DejaVuSans-78"/>
      <path d="M 56.203125 29.59375 
L 56.203125 25.203125 
L 14.890625 25.203125 
Q 15.484375 15.921875 20.484375 11.0625 
Q 25.484375 6.203125 34.421875 6.203125 
Q 39.59375 6.203125 44.453125 7.46875 
Q 49.3125 8.734375 54.109375 11.28125 
L 54.109375 2.78125 
Q 49.265625 0.734375 44.1875 -0.34375 
Q 39.109375 -1.421875 33.890625 -1.421875 
Q 20.796875 -1.421875 13.15625 6.1875 
Q 5.515625 13.8125 5.515625 26.8125 
Q 5.515625 40.234375 12.765625 48.109375 
Q 20.015625 56 32.328125 56 
Q 43.359375 56 49.78125 48.890625 
Q 56.203125 41.796875 56.203125 29.59375 
z
M 47.21875 32.234375 
Q 47.125 39.59375 43.09375 43.984375 
Q 39.0625 48.390625 32.421875 48.390625 
Q 24.90625 48.390625 20.390625 44.140625 
Q 15.875 39.890625 15.1875 32.171875 
z
" id="DejaVuSans-101"/>
      <path d="M 4.203125 54.6875 
L 13.1875 54.6875 
L 24.421875 12.015625 
L 35.59375 54.6875 
L 46.1875 54.6875 
L 57.421875 12.015625 
L 68.609375 54.6875 
L 77.59375 54.6875 
L 63.28125 0 
L 52.6875 0 
L 40.921875 44.828125 
L 29.109375 0 
L 18.5 0 
z
" id="DejaVuSans-119"/>
      <path id="DejaVuSans-32"/>
      <path d="M 8.6875 72.90625 
L 18.609375 72.90625 
L 18.609375 28.609375 
Q 18.609375 16.890625 22.84375 11.734375 
Q 27.09375 6.59375 36.625 6.59375 
Q 46.09375 6.59375 50.34375 11.734375 
Q 54.59375 16.890625 54.59375 28.609375 
L 54.59375 72.90625 
L 64.5 72.90625 
L 64.5 27.390625 
Q 64.5 13.140625 57.4375 5.859375 
Q 50.390625 -1.421875 36.625 -1.421875 
Q 22.796875 -1.421875 15.734375 5.859375 
Q 8.6875 13.140625 8.6875 27.390625 
z
" id="DejaVuSans-85"/>
      <path d="M 41.109375 46.296875 
Q 39.59375 47.171875 37.8125 47.578125 
Q 36.03125 48 33.890625 48 
Q 26.265625 48 22.1875 43.046875 
Q 18.109375 38.09375 18.109375 28.8125 
L 18.109375 0 
L 9.078125 0 
L 9.078125 54.6875 
L 18.109375 54.6875 
L 18.109375 46.1875 
Q 20.953125 51.171875 25.484375 53.578125 
Q 30.03125 56 36.53125 56 
Q 37.453125 56 38.578125 55.875 
Q 39.703125 55.765625 41.0625 55.515625 
z
" id="DejaVuSans-114"/>
     </defs>
     <g style="fill:#262626;" transform="translate(94.7 52.818281)scale(0.11 -0.11)">
      <use xlink:href="#DejaVuSans-78"/>
      <use x="74.804688" xlink:href="#DejaVuSans-101"/>
      <use x="136.328125" xlink:href="#DejaVuSans-119"/>
      <use x="218.115234" xlink:href="#DejaVuSans-32"/>
      <use x="249.902344" xlink:href="#DejaVuSans-85"/>
      <use x="323.095703" xlink:href="#DejaVuSans-115"/>
      <use x="375.195312" xlink:href="#DejaVuSans-101"/>
      <use x="436.71875" xlink:href="#DejaVuSans-114"/>
      <use x="477.832031" xlink:href="#DejaVuSans-115"/>
     </g>
    </g>
   </g>
  </g>
 </g>
 <defs>
  <clipPath id="pdf2800354d">
   <rect height="217.44" width="334.8" x="54" y="34.56"/>
  </clipPath>
 </defs>
</svg>
